<svg xmlns="http://www.w3.org/2000/svg" width="119" height="24" viewBox="0 0 119 24">
    <g fill="none" fill-rule="evenodd">
        <path fill="#1649A1" d="M6.944 23V5.466H1.07v-3.78h15.982v3.78h-5.904V23H6.944zm18.33.249a8.946 8.946 0 0 1-2.593-.366 7.33 7.33 0 0 1-2.161-1.04 7.273 7.273 0 0 1-1.633-1.604 6.928 6.928 0 0 1-1.048-2.088 8.263 8.263 0 0 1-.359-2.46 8.07 8.07 0 0 1 .564-3.033c.376-.937.901-1.74 1.575-2.41.674-.668 1.5-1.193 2.476-1.574s2.036-.571 3.178-.571c1.123 0 2.168.185 3.135.556.967.371 1.792.886 2.476 1.546a6.942 6.942 0 0 1 1.604 2.402c.386.942.578 1.97.578 3.083 0 1.475-.332 2.789-.996 3.94a6.852 6.852 0 0 1-2.768 2.674c-1.182.63-2.525.945-4.029.945zm0-3.516c1.074 0 1.977-.38 2.71-1.142.732-.762 1.098-1.729 1.098-2.9 0-1.192-.361-2.166-1.084-2.923-.723-.757-1.63-1.135-2.725-1.135-1.132 0-2.053.383-2.76 1.15-.709.766-1.063 1.736-1.063 2.907 0 1.143.36 2.102 1.077 2.879.718.776 1.633 1.164 2.746 1.164zm18.944 3.516a8.946 8.946 0 0 1-2.593-.366 7.33 7.33 0 0 1-2.16-1.04 7.273 7.273 0 0 1-1.634-1.604 6.928 6.928 0 0 1-1.047-2.088 8.263 8.263 0 0 1-.36-2.46 8.07 8.07 0 0 1 .565-3.033c.376-.937.9-1.74 1.574-2.41.674-.668 1.5-1.193 2.476-1.574.977-.381 2.036-.571 3.179-.571 1.123 0 2.168.185 3.135.556.966.371 1.792.886 2.475 1.546a6.942 6.942 0 0 1 1.604 2.402c.386.942.579 1.97.579 3.083 0 1.475-.332 2.789-.996 3.94a6.852 6.852 0 0 1-2.769 2.674c-1.182.63-2.524.945-4.028.945zm0-3.516c1.074 0 1.977-.38 2.71-1.142.732-.762 1.098-1.729 1.098-2.9 0-1.192-.361-2.166-1.084-2.923-.722-.757-1.63-1.135-2.724-1.135-1.133 0-2.053.383-2.761 1.15-.708.766-1.062 1.736-1.062 2.907 0 1.143.358 2.102 1.076 2.879.718.776 1.633 1.164 2.747 1.164zM65.246 23V.91h3.926V23h-3.926zM84.762 8.352h3.925V23h-3.735v-1.772h-.073c-1.045 1.347-2.505 2.021-4.38 2.021-1.006 0-1.94-.18-2.805-.542a6.51 6.51 0 0 1-2.227-1.516c-.62-.65-1.106-1.445-1.457-2.388-.352-.942-.528-1.97-.528-3.083a8.73 8.73 0 0 1 .528-3.062c.351-.947.832-1.753 1.443-2.417a6.59 6.59 0 0 1 2.197-1.567 6.634 6.634 0 0 1 2.732-.571c1.787 0 3.227.634 4.321 1.904h.059V8.352zm-3.545 11.381c1.045 0 1.924-.37 2.637-1.113.712-.742 1.069-1.704 1.069-2.886 0-1.171-.35-2.148-1.048-2.93-.698-.78-1.58-1.171-2.644-1.171-1.074 0-1.97.376-2.688 1.128-.717.752-1.076 1.743-1.076 2.973 0 1.182.349 2.144 1.047 2.886s1.6 1.113 2.703 1.113zm16.879 3.516c-1.3 0-2.322-.413-3.07-1.238-.746-.825-1.12-2.038-1.12-3.64v-6.767h-1.728V8.352h1.728v-4.79l3.926-.425v5.215h3.984v3.252h-3.984v6.225c0 .645.1 1.118.3 1.421.2.303.53.454.99.454.566 0 1.18-.17 1.845-.513l1.01 3.135a7.949 7.949 0 0 1-1.684.689c-.566.156-1.299.234-2.197.234zm20.57-7.705c0 .693-.034 1.162-.103 1.406h-10.268c.234.87.681 1.553 1.34 2.051.66.498 1.458.752 2.395.762 1.416.01 2.583-.542 3.501-1.656l2.55 2.373c-.665.84-1.534 1.512-2.608 2.015-1.075.503-2.315.754-3.721.754-1.426 0-2.71-.31-3.853-.93-1.142-.62-2.043-1.511-2.702-2.673-.66-1.163-.989-2.49-.989-3.985 0-1.094.186-2.112.557-3.054.37-.942.876-1.743 1.516-2.402a6.775 6.775 0 0 1 2.307-1.546 7.484 7.484 0 0 1 2.886-.556c1.416 0 2.67.32 3.764.959a6.56 6.56 0 0 1 2.534 2.651c.596 1.128.894 2.405.894 3.83zm-7.06-3.984c-.811 0-1.507.22-2.088.659-.581.44-.984 1.074-1.208 1.904h6.46c-.206-.8-.577-1.428-1.114-1.882-.537-.454-1.22-.681-2.05-.681z"/>
        <path fill-rule="nonzero" stroke="#1649A1" stroke-width="3" d="M0 15.5h119"/>
    </g>
</svg>
