<svg xmlns="http://www.w3.org/2000/svg" xmlns:xlink="http://www.w3.org/1999/xlink" width="16" height="16" viewBox="0 0 16 16">
    <defs>
        <path id="a" d="M7.997 1.442c-2.137 0-2.387.006-3.232.047-.78.035-1.203.168-1.486.276a2.443 2.443 0 0 0-.92.597c-.28.28-.451.547-.597.921-.111.283-.241.705-.276 1.486-.038.845-.048 1.096-.048 3.233s.01 2.387.048 3.232c.035.781.168 1.203.276 1.486.143.375.317.641.597.92.28.28.546.452.92.598.283.11.705.241 1.486.276.845.038 1.095.048 3.232.048 2.136 0 2.387-.01 3.232-.048.78-.035 1.203-.168 1.485-.276.375-.143.642-.318.92-.597.28-.28.452-.546.598-.921.11-.283.241-.705.276-1.486.038-.845.048-1.095.048-3.232 0-2.137-.01-2.388-.048-3.233-.035-.78-.168-1.203-.276-1.486a2.444 2.444 0 0 0-.597-.92c-.28-.28-.546-.452-.92-.598-.283-.11-.705-.24-1.486-.276-.845-.038-1.096-.047-3.232-.047zm0-1.442c2.171 0 2.444.01 3.301.044.854.039 1.435.175 1.943.372.524.206.972.48 1.416.924.445.444.72.889.924 1.416.197.511.333 1.092.371 1.943.038.854.048 1.124.048 3.3 0 2.174-.01 2.444-.048 3.298-.038.855-.174 1.436-.371 1.944-.206.524-.48.971-.924 1.416-.444.444-.889.72-1.416.924-.51.197-1.092.333-1.943.371C10.444 15.99 10.175 16 8 16s-2.444-.01-3.298-.048c-.854-.038-1.435-.174-1.943-.371a3.967 3.967 0 0 1-1.416-.924 3.899 3.899 0 0 1-.924-1.416c-.197-.511-.333-1.093-.371-1.944C.01 10.443 0 10.17 0 7.998c0-2.171.01-2.445.048-3.295.038-.855.174-1.436.371-1.944.206-.524.48-.971.924-1.416C1.787.9 2.232.623 2.759.42 3.267.222 3.848.086 4.699.048 5.551.01 5.824 0 7.996 0zM8 4c2.207 0 4 1.793 4 4s-1.793 4-4 4a4 4 0 0 1 0-8zm0 6.597a2.596 2.596 0 1 0 0-5.193 2.596 2.596 0 0 0 0 5.193zM12 5a1 1 0 1 1 0-2 1 1 0 0 1 0 2z"/>
    </defs>
    <g fill="none" fill-rule="evenodd">
        <mask id="b" fill="#fff">
            <use xlink:href="#a"/>
        </mask>
        <use fill="#FFF" fill-rule="nonzero" xlink:href="#a"/>
        <path fill="#FE0231" fill-rule="nonzero" d="M0 0h16v16H0z" mask="url(#b)"/>
    </g>
</svg>
