<?xml version="1.0" encoding="UTF-8"?>
<svg width="100px" height="59px" viewBox="0 0 100 59" version="1.1" xmlns="http://www.w3.org/2000/svg" xmlns:xlink="http://www.w3.org/1999/xlink">
    <!-- Generator: sketchtool 52.2 (67145) - http://www.bohemiancoding.com/sketch -->
    <title>7D071329-AEFB-4D84-9F28-16A154F9B977</title>
    <desc>Created with sketchtool.</desc>
    <g id="Desktop" stroke="none" stroke-width="1" fill="none" fill-rule="evenodd">
        <g id="Formulaire---Résultats" transform="translate(-313.000000, -904.000000)">
            <g id="Footer" transform="translate(0.000000, 853.000000)">
                <g id="Republique_Francaise-copie" transform="translate(313.000000, 51.000000)">
                    <path d="M6.03174603,57.0508929 C5.71428571,57.0508929 5.55555556,57.0508929 5.3968254,56.8928571 C5.07936508,56.7348214 4.76190476,56.05 4.39153439,55.7339286 C4.07407407,55.1017857 3.75661376,54.575 3.38624339,54.1008929 L3.22751323,54.1008929 C3.06878307,54.1008929 3.06878307,54.1008929 2.91005291,54.1008929 L2.91005291,54.575 C2.91005291,54.7330357 2.91005291,55.0491071 2.91005291,55.4178571 C2.91005291,55.8919643 2.91005291,56.05 3.06878307,56.2607143 C3.22751323,56.5767857 3.38624339,56.7348214 3.7037037,56.7348214 L3.7037037,57.0508929 L3.38624339,57.0508929 C3.22751323,56.8928571 2.91005291,57.0508929 2.38095238,57.0508929 C1.9047619,57.0508929 1.58730159,56.8928571 1.21693122,57.0508929 L1.05820106,57.0508929 L1.05820106,56.7348214 C1.21693122,56.7348214 1.37566138,56.5767857 1.53439153,56.5767857 C1.53439153,56.41875 1.69312169,56.2607143 1.69312169,55.9446429 C1.69312169,55.7866071 1.69312169,55.6285714 1.69312169,54.6276786 L1.69312169,52.9946429 C1.69312169,51.6776786 1.69312169,51.5196429 1.69312169,51.2035714 C1.53439153,50.8875 1.37566138,50.8875 1.05820106,50.8875 L1.05820106,50.5714286 C1.21693122,50.5714286 1.37566138,50.5714286 1.53439153,50.5714286 C2.16931217,50.5714286 2.32804233,50.5714286 2.85714286,50.5714286 C3.33333333,50.5714286 3.65079365,50.5714286 4.02116402,50.5714286 C4.65608466,50.5714286 5.02645503,50.5714286 5.34391534,50.8875 C5.66137566,51.0455357 5.97883598,51.5196429 5.97883598,52.0464286 C5.97883598,52.8892857 5.5026455,53.5214286 4.4973545,53.8375 C4.97354497,54.3116071 5.13227513,54.8383929 5.5026455,55.3125 C5.82010582,55.7866071 6.13756614,56.3133929 6.50793651,56.4714286 C6.66666667,56.6294643 6.66666667,56.7875 6.82539683,56.7875 L6.82539683,57.1035714 C6.66666667,57.0508929 6.34920635,57.0508929 6.03174603,57.0508929 Z M3.54497354,50.9928571 C3.38624339,50.9928571 3.22751323,50.9928571 2.91005291,50.9928571 C2.91005291,51.625 2.91005291,52.6258929 2.91005291,53.46875 C3.06878307,53.46875 3.22751323,53.46875 3.38624339,53.46875 C4.17989418,53.46875 4.70899471,52.9946429 4.70899471,52.3098214 C4.70899471,51.4669643 4.23280423,50.9928571 3.54497354,50.9928571 Z" id="Shape" fill="#FFFFFF" fill-rule="nonzero"></path>
                    <path d="M9.31216931,51.1508929 L8.99470899,50.8348214 L9.62962963,49.6758929 L10.6349206,49.8339286 L9.31216931,51.1508929 Z M11.1111111,56.8928571 C10.952381,57.0508929 10.952381,57.0508929 10.4761905,57.0508929 C10.1587302,57.0508929 10,57.0508929 9.68253968,57.0508929 C9.36507937,57.0508929 8.88888889,56.8928571 8.51851852,56.8928571 C8.2010582,56.8928571 7.72486772,56.8928571 7.35449735,57.0508929 L7.35449735,56.7348214 C7.67195767,56.7348214 7.83068783,56.5767857 7.83068783,56.2607143 C7.98941799,55.9446429 7.98941799,55.7866071 7.98941799,55.2598214 L7.98941799,52.9419643 C7.98941799,52.4678571 7.83068783,52.3098214 7.83068783,52.0991071 C7.83068783,51.9410714 7.67195767,51.7830357 7.35449735,51.7830357 L7.35449735,51.625 L11.1111111,51.625 C11.1111111,51.7830357 11.1111111,52.0991071 11.1111111,52.2571429 C11.1111111,52.4151786 11.1111111,52.5732143 11.1111111,52.8892857 L10.7936508,52.8892857 C10.7936508,52.2571429 10.4761905,52.0464286 9.47089947,52.0464286 C9.31216931,52.0464286 9.15343915,52.0464286 8.99470899,52.0464286 C8.99470899,52.3625 8.99470899,52.3625 8.99470899,52.8892857 L8.99470899,53.8901786 C8.99470899,53.8901786 9.15343915,53.8901786 9.31216931,53.8901786 C10.1058201,53.8901786 10.4761905,53.7321429 10.4761905,53.4160714 L10.7936508,53.4160714 C10.6349206,53.4160714 10.6349206,53.7321429 10.6349206,54.2589286 C10.6349206,54.575 10.7936508,54.7330357 10.7936508,54.8910714 L10.4761905,54.8910714 C10.4761905,54.4169643 10.1587302,54.4169643 9.31216931,54.4169643 C9.15343915,54.4169643 9.15343915,54.4169643 8.99470899,54.4169643 C8.99470899,54.8910714 8.99470899,55.4178571 8.99470899,55.8919643 C8.99470899,56.2080357 8.99470899,56.3660714 9.15343915,56.3660714 C9.31216931,56.3660714 9.47089947,56.3660714 9.78835979,56.3660714 C10.5820106,56.3660714 10.952381,56.2080357 11.1111111,55.5232143 L11.4285714,55.68125 C11.2698413,56.2607143 11.1111111,56.7348214 11.1111111,56.8928571 Z" id="Shape" fill="#FFFFFF" fill-rule="nonzero"></path>
                    <path d="M14.3915344,54.575 C14.3915344,54.575 14.3915344,54.575 14.2328042,54.575 L14.0740741,54.1008929 C14.7089947,54.1008929 15.2380952,53.7848214 15.2380952,53.1 C15.2380952,52.4678571 14.7619048,51.9410714 14.2328042,51.9410714 C14.0740741,51.9410714 14.0740741,51.9410714 13.9153439,52.0991071 C13.9153439,52.5732143 13.9153439,53.1 13.9153439,53.5741071 L13.9153439,54.8910714 C13.9153439,56.05 13.9153439,56.2080357 13.9153439,56.3660714 C14.0740741,56.5241071 14.0740741,56.6821429 14.3915344,56.6821429 L14.3915344,56.9982143 L14.2328042,56.9982143 C14.0740741,56.8401786 13.7566138,56.8401786 13.4391534,56.8401786 C12.962963,56.8401786 12.6455026,56.8401786 12.4338624,56.9982143 L12.2751323,56.9982143 L12.2751323,56.6821429 C12.5925926,56.6821429 12.7513228,56.5241071 12.7513228,56.2080357 C12.9100529,55.8919643 12.9100529,55.7339286 12.9100529,54.8910714 L12.9100529,52.9419643 C12.9100529,52.4678571 12.7513228,52.3098214 12.7513228,52.0991071 C12.7513228,51.9410714 12.5925926,51.7830357 12.2751323,51.7830357 L12.2751323,51.625 C12.4338624,51.625 12.2751323,51.625 12.5925926,51.625 C12.7513228,51.625 12.9100529,51.625 13.2275132,51.625 C13.5449735,51.625 14.021164,51.625 14.3915344,51.625 C15.5555556,51.625 16.3492063,52.0991071 16.3492063,53.1 C16.3492063,53.9428571 15.5026455,54.575 14.3915344,54.575 Z" id="Path" fill="#FFFFFF"></path>
                    <path d="M21.7460317,51.99375 C21.5873016,52.1517857 21.5873016,52.3098214 21.5873016,52.6258929 C21.5873016,52.9419643 21.5873016,53.2580357 21.5873016,53.7848214 C21.5873016,53.9428571 21.5873016,54.4169643 21.5873016,55.1017857 C21.5873016,55.5758929 21.5873016,55.9446429 21.2698413,56.2607143 C20.952381,56.7348214 20.2645503,57.1035714 19.4708995,57.1035714 C18.994709,57.1035714 18.6772487,57.1035714 18.1481481,56.7875 C17.6719577,56.4714286 17.5132275,55.9446429 17.5132275,55.1544643 C17.5132275,54.1535714 17.5132275,53.8375 17.5132275,53.5214286 C17.5132275,53.2053571 17.5132275,52.6785714 17.5132275,52.3625 C17.3544974,52.0464286 17.1957672,51.8883929 16.8783069,51.8883929 L16.8783069,51.625 L17.037037,51.625 C17.3544974,51.625 17.5132275,51.625 18.042328,51.625 C18.3597884,51.625 18.6772487,51.625 18.8359788,51.625 L18.994709,51.625 L18.994709,51.7830357 C18.8359788,51.7830357 18.6772487,51.9410714 18.6772487,52.0991071 C18.5185185,52.0991071 18.5185185,52.2571429 18.5185185,52.5732143 C18.5185185,53.2053571 18.5185185,53.7321429 18.5185185,54.20625 C18.5185185,55.5232143 18.5185185,55.8392857 18.8359788,56.1553571 C18.994709,56.3133929 19.3121693,56.4714286 19.6296296,56.4714286 C20.1058201,56.4714286 20.7936508,56.1553571 20.952381,55.6285714 C20.952381,55.3125 20.952381,54.9964286 20.952381,54.1535714 L20.952381,53.3107143 C20.952381,52.3098214 20.952381,51.99375 20.952381,51.99375 C20.7936508,51.8357143 20.6349206,51.6776786 20.4761905,51.6776786 L20.4761905,51.625 C20.7936508,51.625 20.952381,51.625 21.2698413,51.625 C21.7460317,51.625 21.7460317,51.625 22.0634921,51.625 L22.0634921,51.7830357 C21.9047619,51.8357143 21.9047619,51.99375 21.7460317,51.99375 Z" id="Path" fill="#FFFFFF"></path>
                    <path d="M26.6666667,56.5767857 C26.3492063,56.8928571 25.8730159,57.0508929 25.026455,57.0508929 C24.7089947,57.0508929 24.2328042,56.8928571 23.7037037,56.8928571 C23.5449735,56.8928571 23.2275132,56.8928571 23.0687831,57.0508929 L22.9100529,57.0508929 L22.9100529,56.7348214 C23.3862434,56.7348214 23.3862434,56.5767857 23.5449735,56.2607143 C23.5449735,55.9446429 23.5449735,55.7866071 23.5449735,54.94375 L23.5449735,53.46875 C23.5449735,52.6258929 23.5449735,52.3098214 23.3862434,52.1517857 C23.3862434,51.99375 23.2275132,51.8357143 22.9100529,51.8357143 L22.9100529,51.625 C23.3862434,51.625 23.5449735,51.625 24.0740741,51.625 C24.5502646,51.625 25.2380952,51.625 25.7142857,51.625 C26.3492063,51.625 27.1957672,51.9410714 27.1957672,52.7839286 C27.1957672,53.4160714 26.7195767,53.7848214 26.031746,54.1008929 C26.8253968,54.2589286 27.3544974,54.7330357 27.3544974,55.4178571 C27.3015873,55.8919643 26.984127,56.41875 26.6666667,56.5767857 Z M25.026455,51.99375 C24.8677249,51.99375 24.7089947,51.99375 24.5502646,51.99375 C24.5502646,52.6258929 24.5502646,53.46875 24.5502646,53.7848214 C24.5502646,53.7848214 24.7089947,53.7848214 24.8677249,53.7848214 C25.6613757,53.7848214 26.031746,53.46875 26.031746,52.9419643 C26.031746,52.3098214 25.6613757,51.99375 25.026455,51.99375 Z M25.026455,54.2589286 C24.8677249,54.2589286 24.7089947,54.2589286 24.5502646,54.2589286 C24.5502646,54.575 24.5502646,54.575 24.5502646,54.8910714 L24.5502646,55.3651786 C24.5502646,55.8392857 24.5502646,55.9973214 24.5502646,56.2080357 C24.5502646,56.3660714 24.8677249,56.5241071 25.1851852,56.5241071 C25.8201058,56.5241071 26.1904762,56.2080357 26.1904762,55.5232143 C26.1904762,54.7857143 25.6613757,54.2589286 25.026455,54.2589286 Z" id="Shape" fill="#FFFFFF" fill-rule="nonzero"></path>
                    <path d="M31.7460317,56.8928571 C31.7460317,57.0508929 31.5873016,57.0508929 31.2698413,57.0508929 C31.1111111,57.0508929 30.7936508,57.0508929 30.6349206,57.0508929 C30.1587302,57.0508929 29.6296296,56.8928571 29.1534392,56.8928571 C28.6772487,56.8928571 28.5185185,56.8928571 28.1481481,57.0508929 L28.1481481,56.7348214 C28.3068783,56.7348214 28.4656085,56.7348214 28.6243386,56.5767857 C28.7830688,56.41875 28.7830688,56.2607143 28.7830688,55.5758929 C28.7830688,55.2598214 28.7830688,54.94375 28.7830688,54.4169643 L28.7830688,53.5741071 C28.7830688,52.4151786 28.7830688,52.4151786 28.6243386,52.0991071 C28.6243386,51.9410714 28.4656085,51.7830357 28.1481481,51.7830357 L28.1481481,51.625 L28.3068783,51.625 C28.6243386,51.625 28.9417989,51.625 29.3121693,51.625 C29.6296296,51.625 29.9470899,51.625 30.3174603,51.625 L30.4761905,51.625 L30.4761905,51.7830357 C30,51.7830357 29.8412698,51.9410714 29.8412698,52.4151786 C29.8412698,52.5732143 29.8412698,52.5732143 29.8412698,53.5741071 L29.8412698,54.8910714 C29.8412698,56.05 29.8412698,56.2080357 29.8412698,56.3660714 C30,56.3660714 30.1587302,56.3660714 30.4761905,56.3660714 C30.952381,56.3660714 31.1111111,56.3660714 31.4814815,56.2080357 C31.6402116,56.2080357 31.7989418,55.8919643 31.957672,55.5758929 L32.1164021,55.7339286 C32.0634921,56.2607143 31.9047619,56.7348214 31.7460317,56.8928571 Z" id="Path" fill="#FFFFFF"></path>
                    <path d="M34.5502646,57.0508929 C34.3915344,56.8928571 34.0740741,56.8928571 33.7566138,56.8928571 C33.4391534,56.8928571 33.1216931,56.8928571 32.962963,57.0508929 L32.8042328,57.0508929 L32.8042328,56.7348214 C33.1216931,56.7348214 33.2804233,56.5767857 33.2804233,56.2607143 C33.2804233,55.9446429 33.2804233,55.7866071 33.2804233,54.94375 L33.2804233,53.6267857 C33.2804233,53.46875 33.2804233,53.1526786 33.2804233,52.9946429 C33.2804233,52.5205357 33.2804233,52.3625 33.2804233,52.1517857 C33.1216931,51.99375 32.962963,51.8357143 32.8042328,51.8357143 L32.8042328,51.625 L32.962963,51.625 C33.1216931,51.625 33.4391534,51.625 33.7566138,51.625 C34.0740741,51.625 34.3915344,51.625 34.5502646,51.625 L34.8677249,51.625 L34.8677249,51.7830357 C34.5502646,51.7830357 34.2328042,52.0991071 34.2328042,52.4151786 C34.2328042,52.5732143 34.2328042,52.8892857 34.2328042,53.5741071 L34.2328042,54.8910714 C34.2328042,56.05 34.2328042,56.2080357 34.3915344,56.3660714 C34.3915344,56.5241071 34.5502646,56.6821429 34.8677249,56.6821429 L34.8677249,56.9982143 L34.5502646,56.9982143 L34.5502646,57.0508929 Z" id="Path" fill="#FFFFFF"></path>
                    <path d="M42.0634921,58.3678571 C41.5873016,58.3678571 40.8994709,58.2098214 40.2645503,57.89375 C39.7883598,57.7357143 39.2592593,57.4196429 38.9417989,57.0508929 C38.6243386,57.0508929 38.6243386,57.0508929 38.3068783,57.0508929 C36.6666667,57.0508929 35.6613757,56.05 35.6613757,54.4169643 C35.6613757,52.6258929 36.8253968,51.4669643 38.4656085,51.4669643 C40.1058201,51.4669643 41.2698413,52.6258929 41.2698413,54.1008929 C41.2698413,55.2598214 40.7936508,56.2080357 39.7883598,56.7348214 C40.1058201,56.8928571 40.2645503,57.0508929 40.5820106,57.2089286 C41.3756614,57.6830357 42.0634921,58.0517857 42.5396825,58.0517857 C42.8571429,58.0517857 43.1746032,57.89375 43.5449735,57.7357143 L43.5449735,58.0517857 C43.2275132,58.3678571 42.6984127,58.3678571 42.0634921,58.3678571 Z M38.3068783,52.1517857 C37.3015873,52.1517857 36.6666667,52.9946429 36.6666667,54.1008929 C36.6666667,55.4178571 37.4603175,56.5767857 38.4656085,56.5767857 C39.6296296,56.5767857 40.2645503,55.7339286 40.2645503,54.6276786 C40.2645503,53.1 39.4708995,52.1517857 38.3068783,52.1517857 Z" id="Shape" fill="#FFFFFF" fill-rule="nonzero"></path>
                    <path d="M46.8253968,51.99375 C46.8253968,52.1517857 46.6666667,52.3098214 46.6666667,52.6258929 C46.6666667,52.9419643 46.6666667,53.2580357 46.6666667,53.7848214 C46.6666667,53.9428571 46.6666667,54.4169643 46.6666667,55.1017857 C46.6666667,55.5758929 46.6666667,55.9446429 46.3492063,56.2607143 C46.031746,56.7348214 45.3439153,57.1035714 44.5502646,57.1035714 C44.0740741,57.1035714 43.7566138,57.1035714 43.3862434,56.7875 C42.7513228,56.4714286 42.5925926,55.9446429 42.5925926,55.1544643 C42.5925926,54.1535714 42.5925926,53.8375 42.5925926,53.5214286 C42.5925926,53.2053571 42.5925926,52.6785714 42.5925926,52.3625 C42.4338624,52.0464286 42.2751323,51.8883929 41.957672,51.8883929 L41.957672,51.625 L42.1164021,51.625 C42.4338624,51.625 42.7513228,51.625 43.1216931,51.625 C43.4391534,51.625 43.7566138,51.625 43.9153439,51.625 L44.2328042,51.625 L44.2328042,51.7830357 C43.9153439,51.7830357 43.7566138,51.9410714 43.7566138,52.0991071 C43.5978836,52.0991071 43.5978836,52.2571429 43.5978836,52.5732143 C43.5978836,53.2053571 43.5978836,53.7321429 43.5978836,54.20625 C43.5978836,55.5232143 43.5978836,55.8392857 43.9153439,56.1553571 C44.0740741,56.3133929 44.3915344,56.4714286 44.7089947,56.4714286 C45.3439153,56.4714286 45.8730159,56.1553571 46.031746,55.6285714 C46.031746,55.3125 46.031746,54.9964286 46.031746,54.1535714 L46.031746,53.3107143 C46.031746,52.3098214 46.031746,51.99375 46.031746,51.99375 C45.8730159,51.8357143 45.7142857,51.6776786 45.5555556,51.6776786 L45.5555556,51.625 C45.8730159,51.625 46.031746,51.625 46.3492063,51.625 C46.8253968,51.625 46.984127,51.625 47.1428571,51.625 L47.1428571,51.7830357 C46.984127,51.8357143 46.984127,51.99375 46.8253968,51.99375 Z" id="Path" fill="#FFFFFF"></path>
                    <path d="M51.7460317,56.8928571 C51.7460317,57.0508929 51.5873016,57.0508929 51.2698413,57.0508929 C50.952381,57.0508929 50.6349206,57.0508929 50.4761905,57.0508929 C50,57.0508929 49.6825397,56.8928571 49.1534392,56.8928571 C48.8359788,56.8928571 48.5185185,56.8928571 47.989418,57.0508929 L47.989418,56.7348214 C48.4656085,56.7348214 48.6243386,56.5767857 48.6243386,56.2607143 C48.6243386,55.9446429 48.6243386,55.7866071 48.6243386,55.2598214 L48.6243386,52.9419643 C48.6243386,52.4678571 48.6243386,52.3098214 48.4656085,52.0991071 C48.4656085,51.9410714 48.3068783,51.7830357 47.989418,51.7830357 L47.989418,51.625 L51.7460317,51.625 C51.7460317,51.7830357 51.7460317,52.0991071 51.7460317,52.2571429 C51.7460317,52.4151786 51.7460317,52.5732143 51.7460317,52.8892857 L51.5873016,52.8892857 C51.4285714,52.2571429 51.2698413,52.0464286 50.2645503,52.0464286 C50.1058201,52.0464286 49.7883598,52.0464286 49.6296296,52.0464286 C49.6296296,52.3625 49.6296296,52.3625 49.6296296,52.8892857 L49.6296296,53.8901786 C49.7883598,53.8901786 49.7883598,53.8901786 49.9470899,53.8901786 C50.7407407,53.8901786 51.1111111,53.7321429 51.1111111,53.4160714 L51.4285714,53.4160714 C51.4285714,53.4160714 51.4285714,53.7321429 51.4285714,54.2589286 C51.4285714,54.575 51.4285714,54.7330357 51.4285714,54.8910714 L51.1111111,54.8910714 C51.1111111,54.4169643 50.952381,54.4169643 50.1058201,54.4169643 C49.9470899,54.4169643 49.7883598,54.4169643 49.6296296,54.4169643 C49.6296296,54.8910714 49.6296296,55.4178571 49.6296296,55.8919643 C49.6296296,56.2080357 49.6296296,56.3660714 49.9470899,56.3660714 C49.9470899,56.3660714 50.1058201,56.3660714 50.4232804,56.3660714 C51.2169312,56.3660714 51.5873016,56.2080357 51.7460317,55.5232143 L52.0634921,55.68125 C51.9047619,56.2607143 51.9047619,56.7348214 51.7460317,56.8928571 Z" id="Path" fill="#FFFFFF"></path>
                    <path d="M59.2592593,51.99375 C59.2592593,51.3616071 58.7830688,50.9928571 57.6190476,50.9928571 C57.4603175,50.9928571 57.3015873,51.1508929 56.984127,51.1508929 C56.984127,51.7830357 56.984127,52.3098214 56.984127,53.2580357 C57.3015873,53.2580357 57.3015873,53.2580357 57.4603175,53.2580357 C58.4656085,53.2580357 58.6243386,53.1 58.7830688,52.6258929 L59.1005291,52.6258929 C59.1005291,52.9419643 59.1005291,53.1 59.1005291,53.46875 C59.1005291,53.7848214 59.1005291,54.3116071 59.1005291,54.6276786 L58.7830688,54.6276786 C58.6243386,53.9955357 58.4656085,53.9955357 57.4603175,53.9955357 C57.3015873,53.9955357 57.1428571,53.9955357 56.984127,53.9955357 L56.984127,54.9964286 C56.984127,55.3125 56.984127,55.4705357 56.984127,55.8392857 C56.984127,56.3133929 57.1428571,56.8401786 57.6190476,56.8401786 L57.6190476,57.15625 L57.4603175,57.15625 C57.1428571,56.9982143 56.8253968,56.9982143 56.2962963,56.9982143 C55.978836,56.9982143 55.5026455,56.9982143 55.2910053,57.15625 L55.026455,57.15625 L55.026455,56.8401786 C55.5026455,56.8401786 55.6613757,56.5241071 55.8201058,55.9973214 C55.8201058,55.8392857 55.8201058,55.68125 55.8201058,54.6803571 L55.8201058,52.1517857 C55.8201058,51.6776786 55.8201058,51.3089286 55.6613757,51.1508929 C55.6613757,50.8348214 55.5026455,50.8348214 55.026455,50.8348214 L55.026455,50.51875 L59.6296296,50.51875 C59.6296296,50.6767857 59.6296296,50.9928571 59.6296296,51.3616071 C59.6296296,51.8357143 59.6296296,51.8357143 59.6296296,51.99375 L59.2592593,51.99375 Z" id="Path" fill="#FFFFFF"></path>
                    <path d="M64.7089947,57.0508929 C64.3915344,57.0508929 64.2328042,57.0508929 64.0740741,56.8928571 C63.7566138,56.7348214 63.4391534,56.2607143 63.2804233,55.8919643 C63.1216931,55.4178571 62.8042328,54.8910714 62.4867725,54.575 C62.4867725,54.575 62.4867725,54.575 62.3280423,54.575 L62.1693122,54.575 L62.1693122,54.8910714 C62.1693122,55.2071429 62.1693122,55.3651786 62.1693122,55.5232143 C62.1693122,55.9973214 62.1693122,56.1553571 62.3280423,56.3660714 C62.3280423,56.5241071 62.4867725,56.6821429 62.8042328,56.6821429 L62.8042328,56.9982143 L62.4867725,56.9982143 C62.3280423,56.8401786 62.010582,56.9982143 61.6931217,56.9982143 C61.3756614,56.9982143 61.0582011,56.8401786 60.8994709,56.9982143 L60.7407407,56.9982143 L60.7407407,56.6821429 C60.8994709,56.6821429 60.8994709,56.6821429 61.0582011,56.5241071 C61.0582011,56.5241071 61.2169312,56.3660714 61.2169312,56.2080357 C61.2169312,55.8919643 61.2169312,55.7339286 61.2169312,54.8910714 L61.2169312,53.5741071 C61.2169312,52.5732143 61.2169312,52.4151786 61.2169312,52.0991071 C61.0582011,51.9410714 60.8994709,51.7830357 60.7407407,51.7830357 L60.7407407,51.625 C60.7407407,51.625 60.8994709,51.625 61.0582011,51.625 C61.5343915,51.625 61.6931217,51.625 62.2222222,51.625 C62.6984127,51.625 62.8571429,51.625 63.015873,51.625 C63.6507937,51.625 64.021164,51.625 64.1798942,51.7830357 C64.4973545,52.0991071 64.6560847,52.4151786 64.6560847,52.9419643 C64.6560847,53.5741071 64.3386243,54.1008929 63.4920635,54.4169643 C63.8095238,54.7330357 64.1269841,55.0491071 64.2857143,55.5758929 C64.6031746,56.05 64.7619048,56.41875 65.0793651,56.5767857 C65.0793651,56.7348214 65.2380952,56.7348214 65.3968254,56.7348214 L65.3968254,57.0508929 C65.026455,57.0508929 64.8677249,57.0508929 64.7089947,57.0508929 Z M62.5396825,51.99375 C62.3809524,51.99375 62.2222222,51.99375 62.0634921,52.1517857 C62.0634921,52.4678571 62.0634921,53.46875 62.0634921,54.1008929 C62.2222222,54.1008929 62.2222222,54.1008929 62.3809524,54.1008929 C63.015873,54.1008929 63.5449735,53.6267857 63.5449735,53.1 C63.5449735,52.4678571 63.0687831,51.99375 62.5396825,51.99375 Z" id="Shape" fill="#FFFFFF" fill-rule="nonzero"></path>
                    <path d="M70.4232804,57.0508929 C70.2645503,56.8928571 69.9470899,56.8928571 69.6296296,56.8928571 C69.3121693,56.8928571 68.994709,56.8928571 68.8359788,57.0508929 L68.5185185,57.0508929 L68.5185185,56.7348214 C68.8359788,56.7348214 68.994709,56.5767857 68.994709,56.41875 C68.994709,56.2607143 68.994709,56.2607143 68.8359788,55.9446429 C68.8359788,55.6285714 68.6772487,55.4705357 68.6772487,55.3125 L67.037037,55.3125 L66.8783069,55.6285714 C66.8783069,56.1026786 66.7195767,56.2607143 66.7195767,56.4714286 C66.7195767,56.6294643 66.8783069,56.7875 67.037037,56.7875 L67.037037,57.1035714 C66.7195767,57.1035714 66.7195767,56.9455357 66.2433862,56.9455357 C65.9259259,56.9455357 65.7671958,57.1035714 65.6084656,57.1035714 L65.6084656,56.7875 L65.7671958,56.7875 C65.9259259,56.6294643 66.0846561,56.3133929 66.2433862,55.6285714 L67.037037,53.6794643 C67.1957672,53.2053571 67.5132275,52.3625 67.8306878,51.7303571 L68.3068783,51.7303571 C68.3068783,51.8883929 68.4656085,52.3625 68.6243386,52.5732143 L69.7883598,55.5232143 C69.9470899,55.9973214 70.1058201,56.3660714 70.2645503,56.5241071 C70.2645503,56.6821429 70.4232804,56.8401786 70.5820106,56.8401786 L70.5820106,57.15625 L70.4232804,57.15625 L70.4232804,57.0508929 Z M67.7777778,52.9419643 C67.6190476,53.5741071 67.3015873,54.2589286 67.1428571,54.575 L68.4656085,54.575 L67.7777778,52.9419643 Z" id="Shape" fill="#FFFFFF" fill-rule="nonzero"></path>
                    <path d="M76.1375661,52.1517857 C76.1375661,52.1517857 75.978836,52.3098214 75.978836,52.7839286 C75.978836,53.4160714 75.978836,54.575 75.978836,55.2598214 L75.978836,56.41875 C75.978836,56.5767857 75.978836,56.8928571 75.978836,57.0508929 L75.5026455,57.0508929 C75.026455,56.2080357 73.8624339,54.94375 73.8624339,54.94375 C73.7037037,54.7857143 72.6984127,53.6267857 72.2222222,52.9946429 C72.2222222,53.1526786 72.2222222,52.9946429 72.2222222,53.6267857 L72.2222222,54.1008929 C72.2222222,54.575 72.2222222,55.2598214 72.2222222,55.8919643 C72.2222222,56.2080357 72.3809524,56.3660714 72.3809524,56.5241071 C72.5396825,56.6821429 72.5396825,56.6821429 72.8571429,56.6821429 L72.8571429,56.9982143 C72.5396825,56.8401786 72.2222222,56.8401786 71.8518519,56.8401786 C71.6931217,56.8401786 71.3756614,56.8401786 71.0582011,56.9982143 L71.0582011,56.6821429 C71.5343915,56.6821429 71.6931217,56.2080357 71.6931217,55.8392857 C71.6931217,55.5232143 71.6931217,55.2071429 71.6931217,54.6803571 L71.6931217,53.0473214 C71.6931217,52.2044643 71.6931217,52.0464286 71.5343915,51.8883929 C71.3756614,51.8883929 71.3756614,51.7303571 71.0582011,51.7303571 L71.0582011,51.625 C71.3756614,51.625 71.3756614,51.625 71.8518519,51.625 C72.1693122,51.625 72.1693122,51.625 72.4867725,51.625 C72.4867725,51.7830357 72.6455026,51.9410714 73.2804233,52.6258929 C73.9153439,53.6267857 74.7619048,54.4169643 75.3968254,55.2598214 L75.3968254,53.46875 C75.3968254,52.6258929 75.3968254,52.4678571 75.3968254,52.3098214 C75.2380952,51.99375 75.0793651,51.8357143 74.7619048,51.8357143 L74.7619048,51.625 C75.0793651,51.625 75.2380952,51.625 75.7671958,51.625 C76.0846561,51.625 76.2433862,51.625 76.5608466,51.625 L76.5608466,51.7830357 C76.5079365,51.8357143 76.2962963,51.8357143 76.1375661,52.1517857 Z" id="Path" fill="#FFFFFF"></path>
                    <path d="M81.7460317,56.7348214 C81.2698413,57.0508929 80.7407407,57.0508929 80.2645503,57.0508929 L80.1058201,57.3669643 L80.2645503,57.3669643 C80.5820106,57.3669643 80.7407407,57.525 80.7407407,57.8410714 C80.7407407,58.3151786 80.4232804,58.6839286 79.9470899,58.6839286 C79.7883598,58.6839286 79.6296296,58.5258929 79.4708995,58.5258929 L79.4708995,58.2098214 C79.6296296,58.2098214 79.7883598,58.2098214 79.7883598,58.2098214 C80.1058201,58.2098214 80.2645503,58.2098214 80.2645503,58.0517857 C80.2645503,57.89375 80.1058201,57.7357143 79.9470899,57.7357143 C79.9470899,57.7357143 79.9470899,57.7357143 79.7883598,57.7357143 L79.6296296,57.7357143 L79.7883598,57.1035714 C79.1534392,57.1035714 78.6243386,56.7875 78.1481481,56.2607143 C77.6719577,55.7866071 77.3544974,55.1017857 77.3544974,54.3116071 C77.3544974,52.6785714 78.5185185,51.5196429 80.3174603,51.5196429 C80.952381,51.5196429 81.4814815,51.6776786 81.957672,51.8357143 C81.957672,51.99375 81.957672,52.1517857 81.957672,52.3098214 C81.957672,52.4678571 81.957672,52.7839286 81.957672,52.9419643 L81.6402116,52.9419643 C81.4814815,52.3098214 81.005291,51.9410714 80.3174603,51.9410714 C79.1534392,51.9410714 78.5185185,52.7839286 78.5185185,54.0482143 C78.5185185,55.3651786 79.3121693,56.5241071 80.4761905,56.5241071 C81.1111111,56.5241071 81.6402116,56.2080357 81.7989418,55.5232143 L82.1164021,55.5232143 C81.9047619,55.8919643 81.9047619,56.41875 81.7460317,56.7348214 Z" id="Path" fill="#FFFFFF"></path>
                    <path d="M87.4603175,57.0508929 C87.1428571,56.8928571 86.984127,56.8928571 86.4550265,56.8928571 C86.1375661,56.8928571 85.8201058,56.8928571 85.6613757,57.0508929 L85.5026455,57.0508929 L85.5026455,56.7348214 C85.6613757,56.7348214 85.8201058,56.5767857 85.8201058,56.41875 C85.8201058,56.2607143 85.8201058,56.2607143 85.8201058,55.9446429 C85.6613757,55.6285714 85.6613757,55.4705357 85.5026455,55.3125 L84.021164,55.3125 L83.8624339,55.6285714 C83.7037037,56.1026786 83.7037037,56.2607143 83.7037037,56.4714286 C83.7037037,56.6294643 83.7037037,56.7875 84.021164,56.7875 L84.021164,57.1035714 C83.7037037,57.1035714 83.5449735,56.9455357 83.2275132,56.9455357 C82.9100529,56.9455357 82.7513228,57.1035714 82.4338624,57.1035714 L82.4338624,56.7875 C82.5925926,56.7875 82.5925926,56.7875 82.7513228,56.7875 C82.7513228,56.6294643 82.9100529,56.3133929 83.2275132,55.6285714 L84.021164,53.6794643 C84.1798942,53.2053571 84.4973545,52.3625 84.6560847,51.7303571 L85.1322751,51.7303571 C85.2910053,51.8883929 85.4497354,52.3625 85.6084656,52.5732143 L86.7724868,55.5232143 C86.9312169,55.9973214 87.0899471,56.3660714 87.0899471,56.5241071 C87.2486772,56.6821429 87.4074074,56.8401786 87.5661376,56.8401786 L87.5661376,57.15625 L87.4603175,57.15625 L87.4603175,57.0508929 Z M84.8677249,52.9419643 C84.5502646,53.5741071 84.3915344,54.2589286 84.2328042,54.575 L85.3968254,54.575 L84.8677249,52.9419643 Z" id="Shape" fill="#FFFFFF" fill-rule="nonzero"></path>
                    <path d="M90.1058201,57.0508929 C89.7883598,56.8928571 89.6296296,56.8928571 89.1005291,56.8928571 C88.7830688,56.8928571 88.4656085,56.8928571 88.3068783,57.0508929 L88.1481481,57.0508929 L88.1481481,56.7348214 C88.4656085,56.7348214 88.6243386,56.5767857 88.6243386,56.2607143 C88.6243386,55.9446429 88.6243386,55.7866071 88.6243386,54.94375 L88.6243386,53.6267857 C88.6243386,53.46875 88.6243386,53.1526786 88.6243386,52.9946429 C88.6243386,52.5205357 88.6243386,52.3625 88.6243386,52.1517857 C88.4656085,51.99375 88.3068783,51.8357143 88.1481481,51.8357143 L88.1481481,51.625 L88.3068783,51.625 C88.4656085,51.625 88.7830688,51.625 89.1005291,51.625 C89.5767196,51.625 89.7354497,51.625 90.1058201,51.625 L90.2645503,51.625 L90.2645503,51.7830357 C89.9470899,51.7830357 89.7883598,52.0991071 89.6296296,52.4151786 C89.6296296,52.5732143 89.6296296,52.8892857 89.6296296,53.5741071 L89.6296296,54.8910714 C89.6296296,56.05 89.6296296,56.2080357 89.7883598,56.3660714 C89.7883598,56.5241071 89.9470899,56.6821429 90.2645503,56.6821429 L90.2645503,56.9982143 L90.1058201,56.9982143 L90.1058201,57.0508929 Z" id="Path" fill="#FFFFFF"></path>
                    <path d="M92.5396825,57.0508929 C92.0634921,57.0508929 91.7460317,57.0508929 91.2169312,56.7348214 C91.2169312,56.5767857 91.0582011,56.1026786 91.0582011,55.5758929 L91.3756614,55.5758929 C91.5343915,56.2080357 91.8518519,56.5767857 92.5396825,56.5767857 C93.1746032,56.5767857 93.5449735,56.2607143 93.5449735,55.9446429 C93.5449735,55.4705357 93.3862434,55.3125 92.9100529,54.94375 L92.1164021,54.4696429 C91.6402116,54.1535714 91.3227513,53.8375 91.3227513,52.9946429 C91.3227513,52.1517857 91.957672,51.5196429 92.962963,51.5196429 C93.4391534,51.5196429 93.968254,51.6776786 94.2857143,51.8357143 C94.2857143,51.99375 94.2857143,52.1517857 94.2857143,52.3098214 C94.2857143,52.6258929 94.2857143,52.6258929 94.2857143,52.9419643 L93.968254,52.9419643 C93.968254,52.3098214 93.6507937,51.9410714 92.962963,51.9410714 C92.4867725,51.9410714 92.1693122,52.2571429 92.1693122,52.7839286 C92.1693122,53.1 92.4867725,53.4160714 92.8042328,53.6267857 L93.4391534,54.1008929 C94.0740741,54.575 94.6031746,54.94375 94.6031746,55.5758929 C94.4973545,56.5767857 93.7037037,57.0508929 92.5396825,57.0508929 Z" id="Path" fill="#FFFFFF"></path>
                    <path d="M98.9417989,56.8928571 C98.9417989,57.0508929 98.9417989,57.0508929 98.4656085,57.0508929 C98.1481481,57.0508929 97.989418,57.0508929 97.6719577,57.0508929 C97.3544974,57.0508929 96.8783069,56.8928571 96.5079365,56.8928571 C96.031746,56.8928571 95.7142857,56.8928571 95.3439153,57.0508929 L95.3439153,56.7348214 C95.6613757,56.7348214 95.8201058,56.5767857 95.8201058,56.2607143 C95.8201058,55.9446429 95.8201058,55.7866071 95.8201058,55.2598214 L95.8201058,52.9419643 C95.8201058,52.4678571 95.8201058,52.3098214 95.8201058,52.0991071 C95.6613757,51.9410714 95.5026455,51.7830357 95.3439153,51.7830357 L95.3439153,51.625 L99.1005291,51.625 C99.1005291,51.7830357 99.1005291,52.0991071 99.1005291,52.2571429 C99.1005291,52.4151786 99.1005291,52.5732143 99.1005291,52.8892857 L98.7830688,52.8892857 C98.7830688,52.2571429 98.4656085,52.0464286 97.4603175,52.0464286 C97.3015873,52.0464286 97.1428571,52.0464286 96.8253968,52.0464286 C96.8253968,52.3625 96.8253968,52.3625 96.8253968,52.8892857 L96.8253968,53.8901786 C96.984127,53.8901786 97.1428571,53.8901786 97.3015873,53.8901786 C98.0952381,53.8901786 98.3068783,53.7321429 98.4656085,53.4160714 L98.6243386,53.4160714 C98.6243386,53.4160714 98.6243386,53.7321429 98.6243386,54.2589286 C98.6243386,54.575 98.6243386,54.7330357 98.6243386,54.8910714 L98.4656085,54.8910714 C98.3068783,54.4169643 98.1481481,54.4169643 97.3015873,54.4169643 C97.1428571,54.4169643 96.984127,54.4169643 96.8253968,54.4169643 C96.8253968,54.8910714 96.8253968,55.4178571 96.8253968,55.8919643 C96.8253968,56.2080357 96.984127,56.3660714 97.1428571,56.3660714 C97.3015873,56.3660714 97.4603175,56.3660714 97.6190476,56.3660714 C98.6243386,56.3660714 98.7830688,56.2080357 99.1005291,55.5232143 L99.4179894,55.68125 C99.2592593,56.2607143 99.1005291,56.7348214 98.9417989,56.8928571 Z" id="Path" fill="#FFFFFF"></path>
                    <path d="M3.86243386,43.14375 C3.7037037,43.3017857 3.7037037,43.3017857 3.38624339,43.3017857 C3.06878307,43.3017857 2.59259259,43.3017857 2.22222222,43.3017857 C1.9047619,43.3017857 1.58730159,43.3017857 1.42857143,43.3017857 C1.26984127,43.3017857 0.634920635,43.3017857 0.423280423,43.3017857 L0.423280423,43.14375 C0.582010582,43.14375 0.740740741,42.9857143 0.899470899,42.9857143 C1.05820106,42.8276786 1.05820106,42.5116071 1.21693122,42.1428571 C1.21693122,41.66875 1.37566138,41.3 1.53439153,40.5098214 L1.53439153,40.0357143 C1.69312169,39.4035714 1.69312169,39.0348214 1.69312169,38.71875 C1.69312169,38.4026786 1.69312169,38.2446429 1.37566138,38.2446429 L1.37566138,38.0866071 C1.37566138,38.0866071 1.37566138,38.0866071 1.53439153,38.0866071 C1.69312169,38.0866071 2.01058201,38.0866071 2.32804233,38.0866071 C2.8042328,38.0866071 2.96296296,38.0866071 3.12169312,38.0866071 L3.28042328,38.0866071 L3.28042328,38.2446429 C2.96296296,38.2446429 2.8042328,38.4026786 2.8042328,38.5607143 C2.64550265,38.71875 2.48677249,39.0348214 2.16931217,40.5098214 L2.01058201,41.1419643 C2.01058201,41.7741071 1.85185185,41.9848214 1.85185185,42.3008929 L1.85185185,42.4589286 C1.85185185,42.775 2.01058201,42.9330357 2.48677249,42.9330357 C3.28042328,42.9330357 3.65079365,42.6169643 3.96825397,42.0901786 L4.28571429,42.0901786 C4.02116402,42.6169643 3.86243386,43.14375 3.86243386,43.14375 Z" id="Path" fill="#FFFFFF"></path>
                    <path d="M6.19047619,39.3508929 C5.87301587,39.3508929 5.87301587,39.1928571 5.87301587,39.0348214 C5.87301587,38.71875 6.03174603,38.5607143 6.19047619,38.5607143 C6.50793651,38.5607143 6.66666667,38.71875 6.66666667,38.8767857 C6.66666667,39.1928571 6.50793651,39.3508929 6.19047619,39.3508929 Z M5.34391534,43.4598214 C5.18518519,43.4598214 5.02645503,43.3017857 5.02645503,43.14375 C5.02645503,43.14375 5.02645503,42.9857143 5.18518519,42.8276786 C5.18518519,42.3535714 5.34391534,41.8267857 5.5026455,41.5107143 C5.5026455,41.1946429 5.5026455,40.8785714 5.5026455,40.6678571 L5.5026455,40.5098214 C5.34391534,40.5098214 5.34391534,40.5098214 5.18518519,40.6678571 L5.02645503,40.6678571 L5.02645503,40.3517857 C5.5026455,40.19375 6.03174603,40.19375 6.19047619,40.19375 C6.34920635,40.19375 6.34920635,40.19375 6.34920635,40.3517857 C6.34920635,40.3517857 6.34920635,40.6678571 6.19047619,41.1946429 L6.03174603,41.66875 C5.87301587,42.5116071 5.87301587,42.6696429 5.87301587,42.8276786 C5.87301587,42.9857143 5.87301587,42.9857143 6.03174603,42.9857143 C6.03174603,42.9857143 6.19047619,42.9857143 6.34920635,42.8276786 L6.34920635,43.14375 C6.03174603,43.3017857 5.5026455,43.4598214 5.34391534,43.4598214 Z" id="Shape" fill="#FFFFFF" fill-rule="nonzero"></path>
                    <path d="M9.62962963,42.9330357 C9.31216931,43.2491071 8.99470899,43.4071429 8.46560847,43.4071429 C7.83068783,43.4071429 7.46031746,43.2491071 7.46031746,43.0910714 C7.46031746,43.0910714 7.46031746,42.9330357 7.46031746,42.6169643 L7.93650794,40.8258929 C7.93650794,40.3517857 8.0952381,39.825 8.25396825,39.1928571 C8.25396825,38.8767857 8.41269841,38.5607143 8.41269841,38.5607143 C8.41269841,38.4026786 8.25396825,38.4026786 8.25396825,38.4026786 C8.0952381,38.4026786 7.93650794,38.4026786 7.93650794,38.4026786 L7.93650794,38.2446429 C8.41269841,38.0866071 8.73015873,38.0866071 8.94179894,38.0866071 C9.1005291,38.0866071 9.1005291,38.0866071 9.1005291,38.0866071 C9.1005291,38.2446429 9.1005291,38.4026786 8.94179894,39.0875 L8.78306878,40.0883929 C8.62433862,40.4044643 8.62433862,40.5625 8.62433862,40.5625 C9.1005291,40.4044643 9.41798942,40.2464286 9.94708995,40.2464286 C10.4232804,40.2464286 10.5820106,40.4044643 10.5820106,40.8785714 C10.5820106,41.6160714 10.2645503,42.4589286 9.62962963,42.9330357 Z M9.62962963,40.5098214 C9.47089947,40.5098214 9.31216931,40.5098214 9.15343915,40.6678571 C8.83597884,40.8258929 8.67724868,40.8258929 8.67724868,40.9839286 C8.51851852,41.1419643 8.51851852,41.4580357 8.35978836,41.9848214 C8.2010582,42.4589286 8.2010582,42.8276786 8.2010582,42.8276786 C8.2010582,42.9857143 8.35978836,43.14375 8.67724868,43.14375 C8.99470899,43.14375 9.31216931,42.9857143 9.47089947,42.6696429 C9.78835979,42.1955357 9.94708995,41.5107143 9.94708995,41.0366071 C9.94708995,40.6678571 9.78835979,40.5098214 9.62962963,40.5098214 Z" id="Shape" fill="#FFFFFF" fill-rule="nonzero"></path>
                    <path d="M12.3809524,41.9848214 C12.2222222,41.9848214 12.2222222,41.9848214 12.0634921,41.9848214 C12.0634921,42.1428571 12.0634921,42.3008929 12.0634921,42.4589286 C12.0634921,42.775 12.2222222,42.9330357 12.5396825,42.9330357 C12.6984127,42.9330357 13.015873,42.9330357 13.5449735,42.6169643 L13.5449735,42.775 C13.0687831,43.2491071 12.5396825,43.4071429 12.2222222,43.4071429 C11.7460317,43.4071429 11.4285714,43.0910714 11.4285714,42.5642857 C11.4285714,41.2473214 12.2222222,40.0883929 13.3862434,40.0883929 C13.8624339,40.0883929 14.021164,40.2464286 14.021164,40.7205357 C14.021164,41.4580357 13.3862434,41.9848214 12.3809524,41.9848214 Z M13.2275132,40.5098214 C12.7513228,40.5098214 12.4338624,40.9839286 12.2222222,41.8267857 C13.015873,41.8267857 13.5449735,41.3526786 13.5449735,40.8258929 C13.5449735,40.6678571 13.3862434,40.5098214 13.2275132,40.5098214 Z" id="Shape" fill="#FFFFFF" fill-rule="nonzero"></path>
                    <path d="M17.3015873,41.1419643 L16.984127,41.1419643 C16.984127,40.9839286 16.984127,40.9839286 16.984127,40.8258929 C16.984127,40.6678571 16.8253968,40.6678571 16.6666667,40.6678571 C16.5079365,40.6678571 16.5079365,40.6678571 16.3492063,40.8258929 C16.031746,41.1419643 16.031746,41.66875 15.8730159,42.4589286 L15.7142857,43.3017857 C15.3968254,43.3017857 15.2380952,43.3017857 14.9206349,43.3017857 C15.0793651,43.14375 15.0793651,42.8276786 15.2380952,42.4589286 L15.3968254,41.8267857 C15.3968254,41.3526786 15.5555556,40.9839286 15.5555556,40.8258929 C15.5555556,40.6678571 15.5555556,40.5098214 15.3968254,40.5098214 C15.3968254,40.5098214 15.2380952,40.5098214 15.2380952,40.6678571 L15.0793651,40.6678571 L14.9206349,40.5098214 C15.3968254,40.3517857 15.7142857,40.19375 16.0846561,40.19375 C16.0846561,40.19375 16.0846561,40.19375 16.0846561,40.3517857 C16.2433862,40.3517857 16.2433862,40.5098214 16.2433862,40.6678571 C16.5608466,40.3517857 16.8783069,40.19375 17.037037,40.19375 C17.1957672,40.19375 17.3544974,40.19375 17.5132275,40.3517857 C17.4603175,40.6678571 17.3015873,40.8258929 17.3015873,41.1419643 Z" id="Path" fill="#FFFFFF"></path>
                    <path d="M19.9470899,40.6678571 L19.3121693,40.6678571 L18.994709,42.1428571 C18.8359788,42.6169643 18.8359788,42.775 18.8359788,42.775 C18.8359788,42.9330357 18.994709,42.9330357 18.994709,42.9330357 C19.1534392,42.9330357 19.1534392,42.9330357 19.3121693,42.9330357 L19.4708995,42.9330357 L19.4708995,43.0910714 C19.1534392,43.2491071 18.6772487,43.4071429 18.4656085,43.4071429 C18.3068783,43.4071429 18.1481481,43.2491071 18.1481481,43.0910714 C18.1481481,42.9330357 18.1481481,42.775 18.3068783,42.6169643 C18.3068783,42.3008929 18.3068783,42.1428571 18.4656085,41.7741071 L18.6243386,40.6151786 L18.3068783,40.6151786 L18.3068783,40.2991071 C18.7830688,40.2991071 18.9417989,39.825 19.1005291,39.2982143 L19.5767196,39.2982143 L19.2592593,40.1410714 L19.8941799,40.1410714 L19.8941799,40.6678571 L19.9470899,40.6678571 Z" id="Path" fill="#FFFFFF"></path>
                    <path d="M22.3809524,39.6669643 L22.0634921,39.5089286 L23.0687831,38.35 L23.7037037,38.5080357 L22.3809524,39.6669643 Z M21.4285714,41.9848214 L21.2698413,41.9848214 C21.2698413,42.1428571 21.2698413,42.3008929 21.2698413,42.4589286 C21.2698413,42.775 21.4285714,42.9330357 21.5873016,42.9330357 C21.9047619,42.9330357 22.2222222,42.9330357 22.5925926,42.6169643 L22.7513228,42.775 C22.1164021,43.2491071 21.7460317,43.4071429 21.2698413,43.4071429 C20.7936508,43.4071429 20.6349206,43.0910714 20.6349206,42.5642857 C20.6349206,41.2473214 21.4285714,40.0883929 22.4338624,40.0883929 C22.9100529,40.0883929 23.2275132,40.2464286 23.2275132,40.7205357 C23.2275132,41.4580357 22.3809524,41.9848214 21.4285714,41.9848214 Z M22.2222222,40.5098214 C21.9047619,40.5098214 21.4285714,40.9839286 21.2169312,41.8267857 L21.3756614,41.8267857 C22.010582,41.8267857 22.6984127,41.3526786 22.6984127,40.8258929 C22.7513228,40.6678571 22.3809524,40.5098214 22.2222222,40.5098214 Z" id="Shape" fill="#FFFFFF" fill-rule="nonzero"></path>
                    <path d="M35.8201058,37.5598214 L35.5026455,37.4017857 L36.5079365,36.2428571 L37.3015873,36.4008929 L35.8201058,37.5598214 Z M37.3015873,39.1928571 L37.1428571,39.1928571 L37.1428571,39.0348214 C37.1428571,38.5607143 36.8253968,38.4026786 35.978836,38.4026786 C35.8201058,38.4026786 35.5026455,38.4026786 35.1851852,38.5607143 C35.026455,39.1928571 35.026455,39.7196429 34.8677249,40.3517857 C35.026455,40.3517857 35.026455,40.3517857 35.1851852,40.3517857 C35.6613757,40.3517857 35.8201058,40.3517857 35.978836,40.3517857 C36.2962963,40.3517857 36.4550265,40.19375 36.6137566,39.8776786 L36.7724868,39.8776786 C36.6137566,40.3517857 36.4550265,41.0366071 36.4550265,41.3526786 L36.2962963,41.3526786 L36.2962963,41.1946429 C36.2962963,40.8785714 36.1375661,40.7205357 35.5026455,40.7205357 C35.026455,40.7205357 34.8677249,40.8785714 34.8677249,40.8785714 C34.7089947,41.0366071 34.8677249,40.8785714 34.5502646,41.7214286 C34.5502646,42.1955357 34.5502646,42.5642857 34.5502646,42.5642857 C34.5502646,42.8803571 34.7089947,43.0383929 35.1851852,43.0383929 C36.1904762,43.0383929 36.5079365,42.8803571 36.8253968,42.0375 L36.984127,42.1955357 C36.8253968,42.6696429 36.6666667,43.1964286 36.5079365,43.1964286 C36.3492063,43.3544643 36.3492063,43.3544643 36.031746,43.3544643 C35.7142857,43.3544643 35.3968254,43.3544643 35.2380952,43.3544643 C34.7619048,43.3544643 34.4444444,43.3544643 34.0740741,43.3544643 C33.7566138,43.3544643 33.4391534,43.3544643 32.9100529,43.3544643 L33.0687831,43.1964286 C33.2275132,43.1964286 33.3862434,43.0383929 33.3862434,43.0383929 C33.5449735,42.8803571 33.7037037,42.5642857 33.7037037,42.1955357 C33.8624339,41.7214286 33.8624339,41.5633929 34.021164,40.5625 L34.1798942,40.0883929 C34.3386243,39.45625 34.3386243,39.0875 34.3386243,38.7714286 C34.3386243,38.4553571 34.1798942,38.2973214 33.8624339,38.2973214 L33.8624339,38.1392857 L37.4603175,38.1392857 C37.4603175,38.35 37.3015873,38.8767857 37.3015873,39.1928571 Z" id="Shape" fill="#FFFFFF" fill-rule="nonzero"></path>
                    <path d="M41.2698413,40.6678571 L40.6349206,40.6678571 C40.7936508,40.8258929 40.7936508,40.8258929 40.7936508,41.1419643 C40.7936508,41.7741071 40.1587302,42.3008929 39.4708995,42.3008929 C39.3121693,42.3008929 39.1534392,42.3008929 38.994709,42.3008929 C38.8359788,42.4589286 38.6772487,42.4589286 38.6772487,42.4589286 C38.6772487,42.6169643 38.8359788,42.6169643 39.1534392,42.775 L39.7883598,42.9330357 C40.4232804,43.0910714 40.7936508,43.2491071 40.7936508,43.7758929 C40.7936508,44.61875 40,45.2508929 38.8359788,45.2508929 C38.042328,45.2508929 37.5132275,44.9348214 37.5132275,44.25 C37.5132275,43.5651786 37.8306878,43.2491071 38.5185185,43.0910714 C38.2010582,42.9330357 38.042328,42.9330357 38.042328,42.775 C38.042328,42.6169643 38.3597884,42.4589286 38.6772487,42.1428571 C38.5185185,41.9848214 38.3597884,41.8267857 38.3597884,41.5107143 C38.3597884,40.6678571 38.994709,40.19375 39.8412698,40.19375 C40,40.19375 40.1587302,40.19375 40.3174603,40.19375 L41.3227513,40.19375 L41.3227513,40.6678571 L41.2698413,40.6678571 Z M39.6296296,40.5098214 C39.3121693,40.5098214 38.994709,40.8258929 38.994709,41.5107143 C38.994709,41.8267857 39.1534392,41.9848214 39.4708995,41.9848214 C39.7883598,41.9848214 40.2645503,41.66875 40.2645503,41.1419643 C40.2645503,40.6678571 39.9470899,40.5098214 39.6296296,40.5098214 Z M39.7883598,43.6178571 C39.6296296,43.4598214 39.3121693,43.4598214 38.994709,43.3017857 C38.3597884,43.4598214 37.989418,43.7758929 37.989418,44.3026786 C37.989418,44.8294643 38.3068783,45.1455357 38.994709,45.1455357 C39.6296296,45.1455357 40.3174603,44.6714286 40.3174603,44.1446429 C40.2645503,43.7758929 40.1058201,43.7758929 39.7883598,43.6178571 Z" id="Shape" fill="#FFFFFF" fill-rule="nonzero"></path>
                    <path d="M44.1798942,43.4598214 C44.021164,43.4598214 43.8624339,43.3017857 43.8624339,42.9857143 C43.2275132,43.3017857 42.8571429,43.4598214 42.3809524,43.4598214 C41.9047619,43.4598214 41.7460317,43.14375 41.7460317,42.8276786 C41.7460317,42.3535714 41.9047619,41.66875 42.2222222,41.1946429 C42.6984127,40.5625 43.2275132,40.19375 44.021164,40.19375 C44.3386243,40.19375 44.6560847,40.19375 45.026455,40.3517857 L45.026455,40.5098214 C44.7089947,41.3526786 44.5502646,42.3008929 44.5502646,42.6169643 C44.5502646,42.775 44.5502646,42.9330357 44.5502646,42.9330357 C44.7089947,42.9330357 44.8677249,42.9330357 45.026455,42.775 L45.026455,43.0910714 C44.7089947,43.3017857 44.1798942,43.4598214 44.1798942,43.4598214 Z M43.7037037,40.5098214 C43.3862434,40.5098214 43.2275132,40.6678571 42.9100529,41.1419643 C42.5925926,41.6160714 42.4338624,42.3008929 42.4338624,42.6169643 C42.4338624,42.9330357 42.5925926,43.0910714 42.7513228,43.0910714 C43.0687831,43.0910714 43.5449735,42.775 43.7566138,42.6169643 C43.968254,42.4589286 43.9153439,42.3008929 43.9153439,41.9848214 C44.0740741,41.5107143 44.2328042,41.1419643 44.2328042,40.6678571 C44.021164,40.5098214 43.8624339,40.5098214 43.7037037,40.5098214 Z" id="Shape" fill="#FFFFFF" fill-rule="nonzero"></path>
                    <path d="M47.6190476,38.6660714 C47.3015873,39.825 47.1428571,40.9839286 46.8253968,42.0901786 C46.8253968,42.40625 46.6666667,42.5642857 46.6666667,42.7223214 C46.6666667,42.8803571 46.8253968,42.8803571 46.8253968,42.8803571 C46.984127,42.8803571 47.1428571,42.8803571 47.3015873,42.7223214 L47.3015873,43.0383929 C46.984127,43.1964286 46.5079365,43.3544643 46.2962963,43.3544643 C46.1375661,43.3544643 45.978836,43.1964286 45.978836,43.0383929 C45.978836,42.8803571 45.978836,42.8803571 46.1375661,42.40625 C46.2962963,41.2473214 46.6137566,40.2991071 46.7724868,39.1401786 C46.9312169,38.8241071 46.9312169,38.5080357 46.9312169,38.5080357 C46.9312169,38.35 46.9312169,38.35 46.7724868,38.35 C46.7724868,38.35 46.6137566,38.35 46.4550265,38.35 L46.4550265,38.1919643 C46.9312169,38.0339286 47.2486772,38.0339286 47.6190476,38.0339286 L47.7777778,38.0339286 C47.8306878,38.1919643 47.6190476,38.35 47.6190476,38.6660714 Z" id="Path" fill="#FFFFFF"></path>
                    <path d="M49.6296296,39.3508929 C49.3121693,39.3508929 49.1534392,39.1928571 49.1534392,39.0348214 C49.1534392,38.71875 49.3121693,38.5607143 49.6296296,38.5607143 C49.9470899,38.5607143 50.1058201,38.71875 50.1058201,38.8767857 C50.1058201,39.1928571 49.7883598,39.3508929 49.6296296,39.3508929 Z M48.6243386,43.4598214 C48.6243386,43.4598214 48.4656085,43.3017857 48.4656085,43.14375 C48.4656085,43.14375 48.4656085,42.9857143 48.4656085,42.8276786 C48.6243386,42.3535714 48.7830688,41.8267857 48.7830688,41.5107143 C48.9417989,41.1946429 48.9417989,40.8785714 48.9417989,40.6678571 C48.9417989,40.6678571 48.9417989,40.5098214 48.7830688,40.5098214 C48.7830688,40.5098214 48.7830688,40.5098214 48.6243386,40.6678571 L48.4656085,40.6678571 L48.4656085,40.3517857 C48.9417989,40.19375 49.2592593,40.19375 49.6296296,40.19375 C49.6296296,40.19375 49.7883598,40.19375 49.7883598,40.3517857 C49.7883598,40.3517857 49.6296296,40.6678571 49.4708995,41.1946429 L49.4708995,41.66875 C49.3121693,42.5116071 49.1534392,42.6696429 49.1534392,42.8276786 C49.1534392,42.9857143 49.3121693,42.9857143 49.3121693,42.9857143 C49.4708995,42.9857143 49.6296296,42.9857143 49.7883598,42.8276786 L49.7883598,43.14375 C49.4179894,43.3017857 48.9417989,43.4598214 48.6243386,43.4598214 Z" id="Shape" fill="#FFFFFF" fill-rule="nonzero"></path>
                    <path d="M52.6984127,40.6678571 L52.0634921,40.6678571 L51.7460317,42.1428571 C51.5873016,42.6169643 51.5873016,42.775 51.5873016,42.775 C51.5873016,42.9330357 51.5873016,42.9330357 51.7460317,42.9330357 C51.7460317,42.9330357 51.9047619,42.9330357 52.0634921,42.9330357 L52.2222222,42.9330357 L52.2222222,43.0910714 C51.7460317,43.2491071 51.4285714,43.4071429 51.0582011,43.4071429 C50.8994709,43.4071429 50.8994709,43.2491071 50.8994709,43.0910714 C50.8994709,42.9330357 50.8994709,42.775 50.8994709,42.6169643 C51.0582011,42.3008929 51.0582011,42.1428571 51.0582011,41.7741071 L51.3756614,40.6151786 L50.8994709,40.6151786 L51.0582011,40.2991071 C51.5343915,40.2991071 51.6931217,39.825 51.8518519,39.2982143 L52.1693122,39.2982143 L52.010582,40.1410714 L52.6455026,40.1410714 L52.6455026,40.6678571 L52.6984127,40.6678571 Z" id="Path" fill="#FFFFFF"></path>
                    <path d="M55.026455,39.6669643 L54.8677249,39.5089286 L55.8730159,38.35 L56.5079365,38.5080357 L55.026455,39.6669643 Z M54.1798942,41.9848214 L54.021164,41.9848214 C53.8624339,42.1428571 53.8624339,42.3008929 53.8624339,42.4589286 C53.8624339,42.775 54.021164,42.9330357 54.3386243,42.9330357 C54.4973545,42.9330357 54.8148148,42.9330357 55.3439153,42.6169643 L55.5026455,42.775 C54.8677249,43.2491071 54.3386243,43.4071429 54.021164,43.4071429 C53.5449735,43.4071429 53.2275132,43.0910714 53.2275132,42.5642857 C53.2275132,41.2473214 54.2328042,40.0883929 55.1851852,40.0883929 C55.6613757,40.0883929 55.978836,40.2464286 55.978836,40.7205357 C55.978836,41.4580357 55.1851852,41.9848214 54.1798942,41.9848214 Z M55.026455,40.5098214 C54.7089947,40.5098214 54.2328042,40.9839286 54.021164,41.8267857 C54.8148148,41.8267857 55.3439153,41.3526786 55.3439153,40.8258929 C55.3439153,40.6678571 55.1851852,40.5098214 55.026455,40.5098214 Z" id="Shape" fill="#FFFFFF" fill-rule="nonzero"></path>
                    <path d="M69.9470899,39.1928571 L69.7883598,39.1928571 L69.7883598,39.0348214 C69.7883598,38.8767857 69.6296296,38.71875 69.6296296,38.71875 C69.4708995,38.5607143 69.1534392,38.4026786 68.6243386,38.4026786 C68.4656085,38.4026786 68.1481481,38.4026786 67.989418,38.4026786 C67.8306878,39.0348214 67.6719577,39.7196429 67.6719577,40.3517857 C67.6719577,40.3517857 67.8306878,40.3517857 67.989418,40.3517857 C68.994709,40.3517857 69.1534392,40.3517857 69.3121693,39.8776786 L69.4708995,39.8776786 C69.3121693,40.3517857 69.3121693,40.8785714 69.1534392,41.3526786 L68.994709,41.3526786 L68.994709,41.1946429 C68.994709,41.0366071 68.994709,41.0366071 68.8359788,40.8785714 C68.6772487,40.8785714 68.5185185,40.7205357 68.042328,40.7205357 C67.8835979,40.7205357 67.7248677,40.8785714 67.5661376,40.8785714 L67.4074074,41.3526786 C67.4074074,41.9848214 67.2486772,42.5116071 67.2486772,42.6696429 C67.2486772,42.9857143 67.4074074,43.14375 67.7248677,43.14375 L67.7248677,43.3017857 L67.5661376,43.3017857 C67.5661376,43.3017857 67.2486772,43.3017857 66.9312169,43.3017857 C66.6137566,43.3017857 65.9259259,43.3017857 65.9259259,43.3017857 L65.7671958,43.3017857 L65.7671958,43.14375 C66.0846561,43.14375 66.0846561,42.9857143 66.2433862,42.9857143 C66.4021164,42.8276786 66.4021164,42.5116071 66.5608466,42.1428571 C66.7195767,41.66875 66.7195767,41.3 66.8783069,40.5098214 L67.037037,40.0357143 C67.037037,39.4035714 67.1957672,39.0348214 67.1957672,38.71875 C67.1957672,38.4026786 67.037037,38.2446429 66.7195767,38.2446429 L66.7195767,38.0866071 L70.1587302,38.0866071 C70.1058201,38.35 69.9470899,38.8767857 69.9470899,39.1928571 Z" id="Path" fill="#FFFFFF"></path>
                    <path d="M72.5396825,41.1419643 L72.3809524,41.1419643 C72.3809524,40.9839286 72.3809524,40.9839286 72.3809524,40.8258929 C72.3809524,40.6678571 72.2222222,40.6678571 72.0634921,40.6678571 C71.9047619,40.6678571 71.7460317,40.6678571 71.7460317,40.8258929 C71.4285714,41.1419643 71.2698413,41.66875 71.1111111,42.4589286 L70.952381,43.3017857 C70.7936508,43.3017857 70.6349206,43.3017857 70.3174603,43.3017857 C70.4761905,43.14375 70.4761905,42.8276786 70.4761905,42.4589286 L70.6349206,41.8267857 C70.7936508,41.3526786 70.7936508,40.9839286 70.7936508,40.8258929 C70.7936508,40.6678571 70.7936508,40.5098214 70.7936508,40.5098214 C70.6349206,40.5098214 70.6349206,40.5098214 70.4761905,40.6678571 L70.3174603,40.6678571 L70.3174603,40.5098214 C70.6349206,40.3517857 71.1111111,40.19375 71.3227513,40.19375 C71.5343915,40.19375 71.4814815,40.19375 71.4814815,40.3517857 C71.4814815,40.3517857 71.4814815,40.5098214 71.4814815,40.6678571 C71.957672,40.3517857 72.2751323,40.19375 72.4867725,40.19375 C72.6455026,40.19375 72.8042328,40.19375 72.962963,40.3517857 C72.6984127,40.6678571 72.6984127,40.8258929 72.5396825,41.1419643 Z" id="Path" fill="#FFFFFF"></path>
                    <path d="M75.6613757,43.4598214 C75.5026455,43.4598214 75.5026455,43.3017857 75.5026455,42.9857143 C74.8677249,43.3017857 74.3386243,43.4598214 74.021164,43.4598214 C73.5449735,43.4598214 73.2275132,43.14375 73.2275132,42.8276786 C73.2275132,42.3535714 73.5449735,41.66875 73.8624339,41.1946429 C74.1798942,40.5625 74.6560847,40.19375 75.5026455,40.19375 C75.8201058,40.19375 76.1375661,40.19375 76.5079365,40.3517857 L76.5079365,40.5098214 C76.1904762,41.3526786 76.031746,42.3008929 76.031746,42.6169643 C76.031746,42.775 76.031746,42.9330357 76.1904762,42.9330357 C76.1904762,42.9330357 76.3492063,42.9330357 76.6666667,42.775 L76.6666667,43.0910714 C76.1375661,43.3017857 75.8201058,43.4598214 75.6613757,43.4598214 Z M75.3439153,40.5098214 C75.026455,40.5098214 74.7089947,40.6678571 74.5502646,41.1419643 C74.2328042,41.6160714 73.9153439,42.3008929 73.9153439,42.6169643 C73.9153439,42.9330357 74.0740741,43.0910714 74.2328042,43.0910714 C74.5502646,43.0910714 75.026455,42.775 75.2380952,42.6169643 C75.3968254,42.4589286 75.3968254,42.3008929 75.5555556,41.9848214 C75.7142857,41.5107143 75.7142857,41.1419643 75.8730159,40.6678571 C75.6613757,40.5098214 75.5026455,40.5098214 75.3439153,40.5098214 Z" id="Shape" fill="#FFFFFF" fill-rule="nonzero"></path>
                    <path d="M79.4179894,40.6678571 L78.7830688,40.6678571 L78.4656085,42.1428571 C78.4656085,42.6169643 78.3068783,42.775 78.3068783,42.775 C78.3068783,42.9330357 78.4656085,42.9330357 78.4656085,42.9330357 C78.6243386,42.9330357 78.7830688,42.9330357 78.9417989,42.9330357 L78.9417989,43.0910714 C78.6243386,43.2491071 78.1481481,43.4071429 77.9365079,43.4071429 C77.7777778,43.4071429 77.6190476,43.2491071 77.6190476,43.0910714 C77.6190476,42.9330357 77.6190476,42.775 77.7777778,42.6169643 C77.7777778,42.3008929 77.9365079,42.1428571 77.9365079,41.7741071 L78.0952381,40.6151786 L77.7777778,40.6151786 L77.7777778,40.2991071 C78.2539683,40.2991071 78.5714286,39.825 78.5714286,39.2982143 L79.047619,39.2982143 L78.8888889,40.1410714 L79.5238095,40.1410714 L79.4179894,40.6678571 Z" id="Path" fill="#FFFFFF"></path>
                    <path d="M80.8994709,41.9848214 C80.8994709,41.9848214 80.8994709,41.9848214 80.7407407,41.9848214 C80.7407407,42.1428571 80.7407407,42.3008929 80.7407407,42.4589286 C80.7407407,42.775 80.8994709,42.9330357 81.0582011,42.9330357 C81.3756614,42.9330357 81.6931217,42.9330357 82.2222222,42.6169643 L82.2222222,42.775 C81.7460317,43.2491071 81.2169312,43.4071429 80.8994709,43.4071429 C80.4232804,43.4071429 80.1058201,43.0910714 80.1058201,42.5642857 C80.1058201,41.2473214 80.8994709,40.0883929 81.9047619,40.0883929 C82.5396825,40.0883929 82.6984127,40.2464286 82.6984127,40.7205357 C82.6984127,41.4580357 82.0634921,41.9848214 80.8994709,41.9848214 Z M81.7460317,40.5098214 C81.4285714,40.5098214 81.1111111,40.9839286 80.7407407,41.8267857 L80.8994709,41.8267857 C81.5343915,41.8267857 82.2222222,41.3526786 82.2222222,40.8258929 C82.2222222,40.6678571 82.0634921,40.5098214 81.7460317,40.5098214 Z" id="Shape" fill="#FFFFFF" fill-rule="nonzero"></path>
                    <path d="M85.8201058,41.1419643 L85.6613757,41.1419643 C85.6613757,40.9839286 85.6613757,40.9839286 85.6613757,40.8258929 C85.6613757,40.6678571 85.5026455,40.6678571 85.3439153,40.6678571 C85.1851852,40.6678571 85.1851852,40.6678571 85.026455,40.8258929 C84.7089947,41.1419643 84.5502646,41.66875 84.3915344,42.4589286 L84.2328042,43.3017857 C84.0740741,43.3017857 83.9153439,43.3017857 83.5978836,43.3017857 C83.7566138,43.14375 83.7566138,42.8276786 83.9153439,42.4589286 L84.0740741,41.8267857 C84.0740741,41.3526786 84.2328042,40.9839286 84.2328042,40.8258929 C84.2328042,40.6678571 84.0740741,40.5098214 84.0740741,40.5098214 C83.9153439,40.5098214 83.9153439,40.5098214 83.9153439,40.6678571 L83.5978836,40.6678571 L83.5978836,40.5098214 C84.0740741,40.3517857 84.3915344,40.19375 84.6031746,40.19375 C84.8148148,40.19375 84.7619048,40.19375 84.7619048,40.3517857 C84.7619048,40.3517857 84.9206349,40.5098214 84.9206349,40.6678571 C85.2380952,40.3517857 85.5555556,40.19375 85.7142857,40.19375 C85.8730159,40.19375 86.031746,40.19375 86.1904762,40.3517857 C85.978836,40.6678571 85.978836,40.8258929 85.8201058,41.1419643 Z" id="Path" fill="#FFFFFF"></path>
                    <path d="M89.1005291,43.4598214 C88.9417989,43.4598214 88.7830688,43.3017857 88.7830688,43.14375 C88.7830688,43.14375 88.7830688,42.9857143 88.9417989,42.5116071 L88.9417989,42.1428571 C89.2592593,41.1419643 89.2592593,40.8258929 89.2592593,40.6678571 C89.2592593,40.6678571 89.2592593,40.5098214 89.1005291,40.5098214 C88.9417989,40.5098214 88.7830688,40.6678571 88.4656085,40.8258929 C88.3068783,40.8258929 88.1481481,40.9839286 87.989418,41.1419643 C87.989418,41.3 87.8306878,41.4580357 87.8306878,41.9848214 C87.6719577,42.4589286 87.6719577,42.9857143 87.5132275,43.3017857 C87.1957672,43.3017857 87.1957672,43.3017857 86.8783069,43.3017857 C87.037037,42.8276786 87.1957672,42.3008929 87.1957672,41.66875 C87.3544974,41.1946429 87.3544974,41.0366071 87.3544974,40.8258929 C87.3544974,40.6678571 87.3544974,40.5098214 87.1957672,40.5098214 C87.1957672,40.5098214 87.037037,40.5098214 86.8783069,40.6678571 L86.8783069,40.3517857 C87.1957672,40.3517857 87.6719577,40.19375 87.8835979,40.19375 C88.042328,40.19375 88.042328,40.19375 88.042328,40.6678571 C88.6772487,40.3517857 89.3650794,40.19375 89.6825397,40.19375 C90,40.19375 90,40.19375 90,40.3517857 C90,40.5098214 90,40.8258929 89.8412698,41.5107143 C89.8412698,41.8267857 89.6825397,42.1428571 89.6825397,42.3535714 C89.6825397,42.6696429 89.5238095,42.8276786 89.5238095,42.8276786 C89.5238095,42.9857143 89.6825397,42.9857143 89.6825397,42.9857143 C89.8412698,42.9857143 90,42.9857143 90.1587302,42.9857143 L90.1587302,43.14375 C89.7354497,43.3017857 89.2592593,43.4598214 89.1005291,43.4598214 Z" id="Path" fill="#FFFFFF"></path>
                    <path d="M92.3809524,39.3508929 C92.0634921,39.3508929 91.9047619,39.1928571 91.9047619,39.0348214 C91.9047619,38.71875 92.2222222,38.5607143 92.3809524,38.5607143 C92.6984127,38.5607143 92.8571429,38.71875 92.8571429,38.8767857 C92.8571429,39.1928571 92.5396825,39.3508929 92.3809524,39.3508929 Z M91.3756614,43.4598214 C91.3756614,43.4598214 91.2169312,43.3017857 91.2169312,43.14375 C91.2169312,43.14375 91.2169312,42.9857143 91.2169312,42.8276786 C91.3756614,42.3535714 91.5343915,41.8267857 91.5343915,41.5107143 C91.6931217,41.1946429 91.6931217,40.8785714 91.6931217,40.6678571 C91.6931217,40.6678571 91.6931217,40.5098214 91.5343915,40.5098214 C91.5343915,40.5098214 91.5343915,40.5098214 91.3756614,40.6678571 L91.2169312,40.6678571 L91.2169312,40.3517857 C91.6931217,40.19375 92.010582,40.19375 92.3809524,40.19375 C92.3809524,40.19375 92.5396825,40.19375 92.5396825,40.3517857 C92.5396825,40.3517857 92.3809524,40.6678571 92.2222222,41.1946429 L92.2222222,41.66875 C92.0634921,42.5116071 91.9047619,42.6696429 91.9047619,42.8276786 C91.9047619,42.9857143 92.0634921,42.9857143 92.0634921,42.9857143 C92.2222222,42.9857143 92.3809524,42.9857143 92.5396825,42.8276786 L92.5396825,43.14375 C92.2222222,43.3017857 91.7460317,43.4598214 91.3756614,43.4598214 Z" id="Shape" fill="#FFFFFF" fill-rule="nonzero"></path>
                    <path d="M95.5026455,40.6678571 L94.8677249,40.6678571 L94.5502646,42.1428571 C94.3915344,42.6169643 94.3915344,42.775 94.3915344,42.775 C94.3915344,42.9330357 94.3915344,42.9330357 94.5502646,42.9330357 C94.5502646,42.9330357 94.7089947,42.9330357 94.8677249,42.9330357 L95.026455,42.9330357 L95.026455,43.0910714 C94.5502646,43.2491071 94.2328042,43.4071429 93.8624339,43.4071429 C93.7037037,43.4071429 93.7037037,43.2491071 93.7037037,43.0910714 C93.7037037,42.9330357 93.7037037,42.775 93.7037037,42.6169643 C93.8624339,42.3008929 93.8624339,42.1428571 93.8624339,41.7741071 L94.1798942,40.6151786 L93.7037037,40.6151786 L93.8624339,40.2991071 C94.3386243,40.2991071 94.4973545,39.825 94.6560847,39.2982143 L94.973545,39.2982143 L94.8148148,40.1410714 L95.4497354,40.1410714 L95.4497354,40.6678571 L95.5026455,40.6678571 Z" id="Path" fill="#FFFFFF"></path>
                    <path d="M97.7777778,39.6669643 L97.6190476,39.5089286 L98.6243386,38.35 L99.2592593,38.5080357 L97.7777778,39.6669643 Z M96.984127,41.9848214 L96.8253968,41.9848214 C96.6666667,42.1428571 96.6666667,42.3008929 96.6666667,42.4589286 C96.6666667,42.775 96.8253968,42.9330357 97.1428571,42.9330357 C97.3015873,42.9330357 97.6190476,42.9330357 98.1481481,42.6169643 L98.3068783,42.775 C97.6719577,43.2491071 97.3015873,43.4071429 96.8253968,43.4071429 C96.3492063,43.4071429 96.031746,43.0910714 96.031746,42.5642857 C96.031746,41.2473214 97.037037,40.0883929 97.989418,40.0883929 C98.4656085,40.0883929 98.7830688,40.2464286 98.7830688,40.7205357 C98.7830688,41.4580357 97.9365079,41.9848214 96.984127,41.9848214 Z M97.7777778,40.5098214 C97.4603175,40.5098214 96.984127,40.9839286 96.7724868,41.8267857 C97.5661376,41.8267857 98.0952381,41.3526786 98.0952381,40.8258929 C98.0952381,40.6678571 97.9365079,40.5098214 97.7777778,40.5098214 Z" id="Shape" fill="#FFFFFF" fill-rule="nonzero"></path>
                    <path d="M61.0582011,41.9848214 C61.5343915,41.9848214 62.0634921,41.5107143 62.0634921,40.9839286 C62.0634921,40.5098214 61.5873016,39.9830357 61.0582011,39.9830357 C60.5820106,39.9830357 60.0529101,40.4571429 60.0529101,40.9839286 C60.1058201,41.4580357 60.5820106,41.9848214 61.0582011,41.9848214 Z" id="Path" fill="#FFFFFF"></path>
                    <path d="M28.3068783,41.9848214 C28.7830688,41.9848214 29.3121693,41.5107143 29.3121693,40.9839286 C29.3121693,40.5098214 28.8359788,39.9830357 28.3068783,39.9830357 C27.8306878,39.9830357 27.3015873,40.4571429 27.3015873,40.9839286 C27.3015873,41.4580357 27.8306878,41.9848214 28.3068783,41.9848214 Z" id="Path" fill="#FFFFFF"></path>
                    <path d="M0.952380952,46.8839286 L98.7830688,46.8839286" id="Path" stroke="#FFFFFF" stroke-width="0.5"></path>
                    <g id="Group" transform="translate(1.058201, 0.000000)">
                        <polygon id="Path" fill="#FFFFFF" points="0.0529100529 0.632142857 98.042328 0.632142857 98.042328 33.4508929 0.0529100529 33.4508929"></polygon>
                        <path d="M29.2063492,20.9660714 C28.4126984,21.2821429 27.4074074,21.2821429 26.5608466,21.8089286 C28.5185185,21.6508929 30.4761905,21.9669643 32.2751323,22.6517857 C32.9100529,22.8098214 33.5978836,23.1258929 34.2328042,23.4946429 C34.3915344,23.8107143 34.5502646,23.96875 34.8677249,24.1267857 C35.1851852,24.2848214 35.8730159,24.2848214 36.1904762,24.2848214 L36.5079365,24.2848214 C37.6719577,23.96875 38.7830688,23.6526786 39.6296296,22.8098214 C39.6296296,22.8098214 39.6296296,22.8098214 39.7883598,22.8098214 C39.6296296,23.4419643 39.6296296,24.1267857 39.1534392,24.6008929 C39.1534392,24.7589286 38.994709,24.9169643 39.1534392,24.9169643 C39.3121693,24.9169643 39.3121693,24.9169643 39.3121693,24.9169643 C39.3121693,24.9169643 39.1534392,24.9169643 39.1534392,25.075 L39.4708995,25.075 C39.1534392,25.2330357 38.6772487,25.2330357 38.4656085,25.5491071 C38.4656085,25.7071429 38.6243386,25.7071429 38.6243386,25.7071429 C38.6243386,25.8651786 38.3068783,25.7071429 38.3068783,25.8651786 C38.3068783,25.8651786 38.3068783,25.8651786 38.4656085,25.8651786 C38.3068783,25.8651786 38.3068783,25.8651786 38.3068783,26.0232143 L38.3068783,26.18125 C37.989418,26.18125 37.989418,26.3392857 37.8306878,26.4973214 C38.1481481,26.6553571 38.3068783,26.4973214 38.6243386,26.4973214 C37.8306878,26.8133929 37.1428571,27.1294643 36.3492063,27.4982143 C36.1904762,27.4982143 36.3492063,27.65625 36.1904762,27.65625 C36.3492063,27.8142857 36.5079365,27.65625 36.8253968,27.65625 C35.6613757,28.1303571 34.7089947,28.6571429 33.5449735,29.4473214 C33.5449735,29.4473214 33.3862434,29.4473214 33.3862434,29.6053571 C33.3862434,29.6053571 33.2275132,29.6053571 33.0687831,29.6053571 C32.9100529,29.7633929 33.0687831,29.9214286 32.9100529,30.0794643 C33.2275132,30.2375 33.7037037,29.7633929 33.9153439,30.0794643 C34.0740741,30.0794643 33.7566138,30.2375 33.5978836,30.2375 C33.4391534,30.2375 33.4391534,30.2375 33.2804233,30.2375 C33.1216931,30.3955357 32.962963,30.5535714 32.962963,30.7116071 C32.8042328,30.7116071 32.8042328,30.7116071 32.6455026,30.8696429 C34.2857143,30.7116071 36.0846561,30.8696429 37.5661376,30.0267857 C38.7301587,29.3946429 39.8412698,28.5517857 40.8465608,27.5508929 L41.005291,27.5508929 C40.6878307,28.39375 40.3703704,28.8678571 39.6825397,29.3419643 C39.2063492,29.5 38.8888889,29.9741071 38.5185185,30.1848214 C38.3597884,30.1848214 38.042328,30.3428571 37.8835979,30.5008929 C35.0793651,31.5017857 31.7989418,30.975 29.3650794,32.9767857 C29.3650794,32.81875 29.3650794,32.81875 29.2063492,32.81875 C29.2063492,32.9767857 28.8888889,33.1348214 28.8888889,33.2928571 L25.5026455,33.2928571 C26.1375661,32.9241071 26.7724868,32.5026786 27.4074074,32.1339286 C27.0899471,31.9758929 26.9312169,31.9758929 26.7724868,31.9758929 C26.2962963,31.9758929 25.7671958,31.8178571 25.4497354,31.9758929 C24.3915344,32.3973214 23.1216931,32.3446429 22.4867725,33.2928571 L0.0529100529,33.2928571 L0.0529100529,0.474107143 L44.4444444,0.474107143 C43.5978836,0.895535714 42.7513228,1.21160714 42.1693122,1.94910714 C41.5343915,2.58125 40.8465608,3.42410714 40.6878307,4.26696429 C39.6825397,4.89910714 39.047619,5.9 38.5714286,6.74285714 C37.9365079,8.05982143 36.9312169,9.21875 37.0899471,10.5357143 C37.2486772,11.8526786 37.5661376,12.8535714 37.7248677,14.1178571 C37.8835979,14.5919643 37.8835979,14.9607143 38.042328,15.4348214 C38.2010582,15.9089286 38.042328,16.4357143 38.2010582,16.7517857 C38.3597884,17.0678571 38.3597884,17.2258929 38.6772487,17.3839286 C38.6772487,17.5419643 38.6772487,17.7 38.6772487,17.7 C38.6772487,17.8580357 38.6772487,17.8580357 38.8359788,17.8580357 C38.8359788,18.0160714 38.8359788,18.0160714 38.8359788,18.1741071 C39.4708995,18.80625 40.1587302,19.6491071 40.4761905,20.4919643 C40.6349206,20.8080357 39.8412698,20.65 39.4708995,20.4919643 C38.6772487,20.1758929 38.1481481,19.4910714 37.6719577,19.0169643 C37.6719577,19.0169643 37.5132275,19.0169643 37.5132275,19.175 C37.8306878,19.6491071 38.994709,20.3339286 38.3068783,20.65 C37.989418,20.8080357 37.6719577,20.4919643 37.3015873,20.8080357 C37.3015873,20.9660714 37.3015873,21.1241071 37.3015873,21.2821429 C36.984127,20.9660714 36.5079365,21.1241071 35.978836,20.9660714 C35.6613757,20.8080357 35.6613757,20.3339286 35.1851852,20.3339286 C34.3915344,20.0178571 33.3862434,19.8598214 32.3809524,19.8598214 C31.0582011,19.7017857 29.7354497,19.3857143 28.4656085,19.7017857 C27.3015873,19.7017857 26.3492063,20.7026786 25.6613757,21.4928571 L25.6613757,21.6508929 C26.1375661,21.8089286 26.2962963,21.3348214 26.8253968,21.1767857 C27.4603175,21.01875 28.3068783,20.7026786 28.9417989,20.7026786 C30.1058201,20.3866071 31.0582011,20.0705357 32.2222222,20.2285714 C32.3809524,20.2285714 32.6984127,20.0705357 32.8571429,20.2285714 C31.6931217,20.1758929 30.5291005,20.65 29.2063492,20.9660714 Z M29.2063492,33.4508929 C29.5238095,33.1348214 30,32.9767857 30.5291005,32.81875 C30.2116402,33.0294643 29.8941799,33.2928571 29.5238095,33.4508929 L29.2063492,33.4508929 Z" id="Shape" fill="#194E9C"></path>
                        <path d="M29.2063492,20.9660714 C28.4126984,21.2821429 27.4074074,21.2821429 26.5608466,21.8089286 C28.5185185,21.6508929 30.4761905,21.9669643 32.2751323,22.6517857 C32.9100529,22.8098214 33.5978836,23.1258929 34.2328042,23.4946429 C34.3915344,23.8107143 34.5502646,23.96875 34.8677249,24.1267857 C35.1851852,24.2848214 35.8730159,24.2848214 36.1904762,24.2848214 L36.5079365,24.2848214 C37.6719577,23.96875 38.7830688,23.6526786 39.6296296,22.8098214 L39.7883598,22.8098214 C39.6296296,23.4419643 39.6296296,24.1267857 39.1534392,24.6008929 C39.1534392,24.6008929 38.994709,24.9169643 39.1534392,24.9169643 L39.3121693,24.9169643 L39.1534392,25.075 L39.4708995,25.075 C39.1534392,25.2330357 38.6772487,25.2330357 38.4656085,25.5491071 L38.6243386,25.7071429 C38.6243386,25.8651786 38.3068783,25.7071429 38.3068783,25.8651786 L38.4656085,25.8651786 L38.3068783,26.0232143 L38.3068783,26.18125 C37.989418,26.18125 37.989418,26.3392857 37.8306878,26.4973214 C38.1481481,26.6553571 38.3068783,26.4973214 38.6243386,26.4973214 C37.8306878,26.8133929 37.1428571,27.1294643 36.3492063,27.4982143 L36.1904762,27.65625 C36.3492063,27.8142857 36.5079365,27.65625 36.8253968,27.65625 C35.6613757,28.1303571 34.7089947,28.6571429 33.5449735,29.4473214 L33.3862434,29.6053571 L33.0687831,29.6053571 C32.9100529,29.7633929 33.0687831,29.9214286 32.9100529,30.0794643 C33.2275132,30.2375 33.7037037,29.7633929 33.9153439,30.0794643 L33.5978836,30.2375 L33.3333333,30.2375 C33.1746032,30.3955357 33.015873,30.5535714 33.015873,30.7116071 C33.015873,30.7116071 32.8571429,30.7116071 32.6984127,30.8696429 C34.3386243,30.7116071 36.1375661,30.8696429 37.6190476,30.0267857 C38.7830688,29.3946429 39.8941799,28.5517857 40.8994709,27.5508929 L41.0582011,27.5508929 C40.7407407,28.39375 40.4232804,28.8678571 39.7354497,29.3419643 C39.2592593,29.5 38.9417989,29.9741071 38.5714286,30.1848214 C38.4126984,30.1848214 38.0952381,30.3428571 37.9365079,30.5008929 C35.1322751,31.5017857 31.8518519,30.975 29.4179894,32.9767857 L29.2592593,32.81875 C29.2592593,32.9767857 28.9417989,33.1348214 28.9417989,33.2928571 C28.9417989,33.2928571 28.9417989,33.2928571 28.9417989,33.2928571 C28.9417989,33.2928571 28.9417989,33.2928571 28.9417989,33.2928571 C28.9417989,33.2928571 28.9417989,33.2928571 28.9417989,33.2928571 C28.9417989,33.2928571 28.9417989,33.2928571 28.9417989,33.2928571 C28.9417989,33.2928571 28.9417989,33.2928571 28.9417989,33.2928571 C28.9417989,33.2928571 28.9417989,33.2928571 28.9417989,33.2928571 C28.9417989,33.2928571 28.9417989,33.2928571 28.9417989,33.2928571 C28.9417989,33.2928571 28.9417989,33.2928571 28.9417989,33.2928571 C28.9417989,33.2928571 28.9417989,33.2928571 28.9417989,33.2928571 C28.9417989,33.2928571 28.9417989,33.2928571 28.9417989,33.2928571 C28.9417989,33.2928571 28.9417989,33.2928571 28.9417989,33.2928571 C28.9417989,33.2928571 28.9417989,33.2928571 28.9417989,33.2928571 C28.9417989,33.2928571 28.9417989,33.2928571 28.9417989,33.2928571 C28.9417989,33.2928571 28.9417989,33.2928571 28.9417989,33.2928571 C28.9417989,33.2928571 28.9417989,33.2928571 28.9417989,33.2928571 C28.9417989,33.2928571 28.9417989,33.2928571 28.9417989,33.2928571 C28.9417989,33.2928571 28.9417989,33.2928571 28.9417989,33.2928571 C28.9417989,33.2928571 28.9417989,33.2928571 28.9417989,33.2928571 C28.9417989,33.2928571 28.9417989,33.2928571 28.9417989,33.2928571 C28.9417989,33.2928571 28.9417989,33.2928571 28.9417989,33.2928571 C28.9417989,33.2928571 28.9417989,33.2928571 28.9417989,33.2928571 C28.9417989,33.2928571 28.9417989,33.2928571 28.9417989,33.2928571 C28.9417989,33.2928571 28.9417989,33.2928571 28.9417989,33.2928571 C28.9417989,33.2928571 28.9417989,33.2928571 28.9417989,33.2928571 C28.9417989,33.2928571 28.9417989,33.2928571 28.9417989,33.2928571 C28.9417989,33.2928571 28.9417989,33.2928571 28.9417989,33.2928571 C28.9417989,33.2928571 28.9417989,33.2928571 28.9417989,33.2928571 C28.9417989,33.2928571 28.9417989,33.2928571 28.9417989,33.2928571 C28.9417989,33.2928571 28.9417989,33.2928571 28.9417989,33.2928571 C28.9417989,33.2928571 28.9417989,33.2928571 28.9417989,33.2928571 C28.9417989,33.2928571 28.9417989,33.2928571 28.9417989,33.2928571 C29.2592593,32.9767857 29.7354497,32.81875 30.2645503,32.6607143 C29.9470899,32.8714286 29.6296296,33.1348214 29.2592593,33.2928571 M25.5026455,33.4508929 C26.1375661,33.0821429 26.7724868,32.6607143 27.4074074,32.2919643 C27.0899471,32.1339286 26.9312169,32.1339286 26.7724868,32.1339286 C26.2962963,32.1339286 25.7671958,31.9758929 25.4497354,32.1339286 C24.3915344,32.5553571 23.1216931,32.5026786 22.4867725,33.4508929 M44.4444444,0.632142857 C43.5978836,1.05357143 42.7513228,1.36964286 42.1693122,2.10714286 C41.5343915,2.73928571 40.8465608,3.58214286 40.6878307,4.425 C39.6825397,5.05714286 39.047619,6.05803571 38.5714286,6.90089286 C37.9365079,8.21785714 36.9312169,9.37678571 37.0899471,10.69375 C37.2486772,12.0107143 37.5661376,13.0116071 37.7248677,14.2758929 C37.8835979,14.75 37.8835979,15.11875 38.042328,15.5928571 C38.2010582,16.0669643 38.042328,16.59375 38.2010582,16.9098214 C38.3597884,17.2258929 38.3597884,17.3839286 38.6772487,17.5419643 L38.6772487,17.8580357 C38.6772487,18.0160714 38.8359788,18.0160714 38.8359788,18.0160714 L38.8359788,18.3321429 C39.4708995,18.9642857 40.1587302,19.8071429 40.4761905,20.65 C40.6349206,20.9660714 39.8412698,20.8080357 39.4708995,20.65 C38.6772487,20.3339286 38.1481481,19.6491071 37.6719577,19.175 L37.5132275,19.3330357 C37.8306878,19.8071429 38.994709,20.4919643 38.3068783,20.8080357 C37.989418,20.9660714 37.6719577,20.65 37.3015873,20.9660714 C37.3015873,21.1241071 37.3015873,21.4401786 37.3015873,21.4401786 C36.984127,21.1241071 36.5079365,21.2821429 35.978836,21.1241071 C35.6613757,20.9660714 35.6613757,20.4919643 35.1851852,20.4919643 C34.3915344,20.1758929 33.3862434,20.0178571 32.3809524,20.0178571 C31.0582011,19.8598214 29.7354497,19.54375 28.4656085,19.8598214 C27.3015873,19.8598214 26.3492063,20.8607143 25.6613757,21.6508929 L25.6613757,21.8089286 C26.1375661,21.9669643 26.2962963,21.4928571 26.8253968,21.3348214 C27.4603175,21.1767857 28.3068783,20.8607143 28.9417989,20.8607143 C30.1058201,20.5446429 31.0582011,20.2285714 32.2222222,20.3866071 C32.3809524,20.3866071 32.6984127,20.2285714 32.8571429,20.3866071 C31.5343915,20.2285714 30.4232804,20.7026786 29.1005291,21.01875" id="Shape" stroke="#194E9C" stroke-width="0.658981606"></path>
                        <path d="M24.973545,24.6008929 C24.8148148,24.7589286 24.6560847,24.9169643 24.6560847,25.075 C24.973545,25.2330357 25.2910053,24.9169643 25.8201058,24.9169643 C25.3439153,25.075 24.8148148,25.075 24.3386243,25.3910714 C24.6560847,25.5491071 24.973545,25.3910714 25.3439153,25.3910714 C25.3439153,25.5491071 25.5026455,25.5491071 25.5026455,25.7071429 C25.1851852,25.8651786 24.8677249,26.0232143 24.8677249,26.3392857 C24.7089947,26.6553571 24.2328042,26.8133929 24.0740741,27.1821429 L24.0740741,27.3401786 C23.2804233,27.9723214 22.4338624,28.4991071 21.957672,29.2892857 L21.957672,29.4473214 C21.7989418,29.6053571 21.6402116,29.7633929 21.4814815,29.9214286 C21.4814815,30.0794643 21.4814815,30.0794643 21.6402116,30.0794643 C22.4338624,29.7633929 23.1216931,29.0785714 23.9153439,28.7625 C24.5502646,28.6044643 25.0793651,28.2883929 25.5555556,28.1303571 C25.8730159,28.1303571 26.3492063,27.9723214 26.7195767,27.8142857 C26.7195767,27.9723214 26.7195767,27.9723214 26.8783069,27.9723214 C27.037037,27.9723214 27.1957672,27.9723214 27.3544974,27.9723214 C27.3544974,28.1303571 27.037037,28.1303571 27.037037,28.1303571 C27.3544974,28.4464286 27.6719577,28.2883929 28.042328,28.1303571 C28.3597884,27.9723214 28.5185185,27.9723214 28.8359788,27.9723214 L28.8359788,27.8142857 C29.1534392,27.8142857 29.3121693,27.8142857 29.4708995,27.8142857 C31.2698413,27.4982143 32.9100529,27.1821429 34.5502646,26.3392857 C32.7513228,24.8642857 30.2645503,24.2321429 27.8306878,23.5473214 C28.1481481,23.5473214 28.3068783,23.8633929 28.4656085,23.5473214 C28.1481481,23.3892857 27.6719577,23.3892857 27.3015873,23.23125 C27.4603175,23.23125 27.6190476,23.3892857 27.6190476,23.23125 C26.984127,22.9151786 26.4550265,22.9151786 25.8201058,22.7571429 C26.1375661,22.5991071 26.4550265,22.4410714 26.4550265,21.9142857 C26.4550265,21.9142857 26.2962963,21.9142857 26.1375661,21.9142857 C25.3439153,22.3883929 24.6560847,23.23125 24.3386243,24.2321429 C24.8148148,24.3901786 25.5026455,24.2321429 25.978836,24.2321429 C25.7671958,24.6008929 25.2910053,24.6008929 24.973545,24.6008929 Z" id="Path" fill="#FFFFFF"></path>
                        <path d="M22.010582,21.6508929 C21.2169312,22.49375 20.3703704,23.2839286 19.3650794,23.7580357 C18.7301587,25.075 18.042328,26.3919643 17.0899471,27.7089286 C18.8888889,25.7598214 20.5291005,24.1267857 22.8042328,22.5991071 C22.962963,22.4410714 22.6455026,22.7571429 22.962963,22.7571429 C23.968254,22.4410714 24.1269841,21.5982143 24.6031746,20.8080357 C25.2380952,19.8071429 26.2433862,19.4910714 27.037037,18.7008929 C27.037037,18.7008929 27.037037,18.8589286 26.8783069,18.8589286 C27.037037,19.0169643 27.037037,19.0169643 27.1957672,19.0169643 C27.5132275,18.7008929 27.8306878,18.8589286 27.989418,18.5428571 C27.5132275,18.2267857 26.6666667,18.2267857 26.031746,18.3848214 C24.6031746,19.175 23.1216931,20.3339286 22.010582,21.6508929 Z" id="Path" fill="#FFFFFF"></path>
                        <path d="M23.1216931,23.1258929 C23.1216931,22.9678571 23.1216931,22.9678571 23.2804233,22.8098214 C23.2804233,22.8098214 23.2804233,22.6517857 23.1216931,22.6517857 C22.962963,22.8098214 22.6455026,23.1258929 22.6455026,23.4946429 C22.6455026,23.4946429 22.6455026,23.4946429 22.8042328,23.4946429 C22.962963,23.4419643 22.962963,23.2839286 23.1216931,23.1258929 Z" id="Path" fill="#FFFFFF"></path>
                        <path d="M29.047619,28.8678571 C28.7301587,29.0258929 28.2539683,29.0258929 28.2539683,29.3419643 C28.0952381,29.5 28.4126984,29.5 28.5714286,29.5 C29.047619,29.1839286 29.7354497,29.5 30.2116402,29.0258929 C30.0529101,28.8678571 29.7354497,28.8678571 29.5767196,28.7098214 C29.3650794,28.4991071 29.2063492,28.7098214 29.047619,28.8678571 Z" id="Path" fill="#FFFFFF"></path>
                        <path d="M37.2486772,32.9241071 C37.7248677,32.7660714 38.042328,32.45 38.5714286,32.2919643 C38.5714286,32.45 38.5714286,32.45 38.5714286,32.45 C39.7354497,31.9758929 40.5291005,31.1330357 41.6931217,30.6589286 C41.6931217,30.6589286 41.8518519,30.8169643 42.010582,30.8169643 C42.6455026,30.1848214 43.4920635,29.5 44.4444444,29.6580357 L44.4444444,29.8160714 C44.6031746,29.8160714 44.6031746,29.8160714 44.6031746,29.6580357 C44.2857143,29.9741071 43.968254,30.1321429 43.8095238,30.2901786 C43.6507937,30.4482143 43.8095238,30.4482143 43.8095238,30.4482143 C44.1269841,30.2901786 44.4444444,30.1321429 44.8148148,29.9741071 C44.8148148,29.9741071 44.8148148,30.1321429 44.6560847,30.2901786 C43.2804233,31.1857143 42.3809524,32.2392857 41.3227513,33.3982143 L32.6984127,33.3982143 C33.5449735,33.1875 34.3915344,32.9767857 35.2910053,32.9241071 C35.9259259,32.9241071 36.5608466,32.9241071 37.2486772,32.9241071 Z" id="Path" fill="#194E9C"></path>
                        <path d="M66.7195767,29.0258929 C66.8783069,28.5517857 67.037037,27.8669643 66.7195767,27.3928571 C66.4021164,26.7607143 67.1957672,26.55 67.5132275,26.0758929 C67.6719577,25.7598214 67.3544974,25.44375 67.1957672,25.075 C67.1957672,24.9169643 66.8783069,25.075 66.7195767,24.7589286 C67.1957672,24.6008929 68.2010582,24.1267857 67.7248677,23.4419643 C67.5661376,23.1258929 67.2486772,22.4410714 67.5661376,22.125 C68.2010582,21.8089286 69.047619,21.8089286 69.2063492,21.2821429 C69.5238095,20.4392857 68.7301587,19.6491071 68.2010582,18.9642857 C68.042328,18.4901786 67.7248677,18.1214286 67.4074074,17.6473214 C67.2486772,17.1732143 66.7724868,16.6464286 66.6137566,16.1723214 C66.4550265,15.5401786 66.7724868,15.0133929 66.7724868,14.38125 C66.7724868,13.2223214 66.4550265,12.0633929 66.2962963,11.1151786 C65.978836,10.4830357 65.978836,9.95625 65.6613757,9.48214286 C65.6613757,9.16607143 65.6613757,8.85 65.3439153,8.48125 C65.3439153,8.32321429 65.3439153,8.16517857 65.3439153,8.00714286 C65.6613757,7.84910714 65.978836,7.53303571 66.3492063,7.16428571 C66.5079365,6.84821429 66.3492063,6.32142857 66.031746,6.00535714 C65.5555556,5.84732143 65.5555556,6.6375 65.2380952,6.84821429 C65.0793651,6.84821429 65.0793651,6.84821429 64.9206349,6.84821429 C64.9206349,6.53214286 65.0793651,6.53214286 65.2380952,6.37410714 C65.2380952,6.21607143 65.2380952,6.05803571 65.0793651,6.05803571 C64.7619048,6.05803571 64.6031746,6.05803571 64.4444444,5.9 C63.8095238,4.89910714 62.6455026,4.425 61.4814815,3.95089286 C61.7989418,3.95089286 62.1164021,4.10892857 62.4867725,4.10892857 C62.962963,4.10892857 63.6507937,4.10892857 63.968254,3.95089286 C64.4444444,3.79285714 64.4444444,3.10803571 64.6031746,2.79196429 C64.7619048,2.47589286 64.6031746,1.94910714 64.4444444,1.79107143 C64.021164,1.26428571 63.5978836,0.948214286 63.1216931,0.632142857 L98.2010582,0.632142857 L98.2010582,32.1866071 C98.2010582,32.6080357 98.2010582,33.0294643 98.2010582,33.3982143 L56.3492063,33.3982143 C56.7195767,32.0285714 57.5132275,30.7116071 58.8888889,29.8160714 C59.047619,29.6580357 59.5238095,29.6580357 59.8941799,29.5 C61.2169312,29.5 62.3280423,29.9741071 63.6507937,30.1321429 C63.8095238,30.1321429 63.968254,30.1321429 64.1269841,30.2901786 C64.6031746,30.2901786 65.1322751,30.2901786 65.6084656,30.1321429 C65.9259259,29.9741071 66.4021164,29.6580357 66.7195767,29.0258929 Z" id="Path" fill="#E2201A"></path>
                        <path d="M63.8095238,14.2758929 C63.4920635,14.2758929 63.015873,14.2758929 62.6455026,14.2758929 C62.010582,14.4339286 61.4814815,14.5919643 61.005291,14.75 C61.3227513,14.4339286 61.7989418,14.1178571 62.3280423,13.9071429 C62.8042328,13.9071429 63.1216931,13.7491071 63.4920635,13.7491071 C63.968254,13.5910714 64.4973545,13.4330357 64.8148148,13.5910714 C65.1322751,13.7491071 65.8201058,13.7491071 65.8201058,13.9071429 C65.978836,14.38125 65.6613757,14.9080357 65.1851852,15.2241071 C65.1851852,15.3821429 65.5026455,15.3821429 65.5026455,15.5401786 C65.3439153,15.6982143 65.1851852,15.6982143 65.026455,15.6982143 C64.8677249,15.85625 64.7089947,16.0142857 64.5502646,16.1723214 C64.7089947,16.1723214 64.5502646,16.4883929 64.7089947,16.4883929 C64.3915344,16.8044643 64.8677249,17.4892857 64.3915344,17.6473214 C63.9153439,17.8053571 63.2275132,17.8053571 62.7513228,17.6473214 C63.0687831,17.6473214 63.3862434,17.8053571 63.5449735,17.4892857 C63.5449735,17.33125 63.5449735,17.33125 63.5449735,17.1732143 C63.5449735,17.1732143 63.5449735,17.1732143 63.3862434,17.1732143 L63.2275132,17.1732143 C63.2275132,17.0151786 63.0687831,16.8571429 63.0687831,16.8571429 C62.5925926,17.0151786 62.2751323,16.6991071 61.9047619,16.5410714 C62.2222222,16.3830357 62.3809524,16.3830357 62.5396825,16.3830357 C62.8571429,16.3830357 62.6984127,16.0669643 63.015873,15.9089286 C63.015873,15.9089286 63.015873,15.9089286 63.1746032,15.9089286 C63.6507937,15.2767857 64.4973545,15.0660714 64.6560847,14.5919643 C64.6031746,14.4339286 64.1269841,14.4339286 63.8095238,14.2758929 Z" id="Path" fill="#9D9D9C"></path>
                    </g>
                </g>
            </g>
        </g>
    </g>
</svg>